<?xml version="1.0" encoding="UTF-8"?>
<svg id="Layer_3" data-name="Layer 3" xmlns="http://www.w3.org/2000/svg" viewBox="0 0 1000 500">
  <defs>
    <style>
      .cls-1 {
        stroke: #ff2a17;
      }

      .cls-1, .cls-2 {
        fill: none;
        stroke-miterlimit: 10;
        stroke-width: 8px;
      }

      .cls-2 {
        stroke: #78b0ff;
      }
    </style>
  </defs>
  <path class="cls-2" d="M387,387.83c1.44-2.37,2.93-4.77,4.48-7.26,1.53-2.47,3.11-5.02,4.73-7.62,1.62-2.6,3.29-5.28,5.02-7.99,1.71-2.73,3.48-5.49,5.28-8.31,1.8-2.84,3.66-5.71,5.55-8.64,1.89-2.91,3.82-5.89,5.79-8.9,1.98-3.02,4-6.08,6.06-9.17,2.04-3.09,4.15-6.22,6.28-9.39,2.13-3.17,4.29-6.37,6.49-9.61,2.2-3.22,4.44-6.48,6.71-9.75,2.27-3.27,4.58-6.57,6.93-9.9,2.33-3.31,4.69-6.66,7.1-10.01,2.4-3.35,4.82-6.71,7.28-10.08,2.44-3.37,4.91-6.73,7.42-10.12,2.49-3.38,5-6.77,7.55-10.13,2.55-3.38,5.09-6.75,7.68-10.12,2.57-3.37,5.17-6.71,7.77-10.06,2.6-3.35,5.22-6.66,7.84-9.97,2.64-3.31,5.26-6.6,7.91-9.86"/>
  <path class="cls-2" d="M355.75,437.74c.49-.6,1.02-1.29,1.58-2.06.56-.78,1.16-1.64,1.8-2.58.66-.95,1.33-1.98,2.06-3.09.73-1.11,1.49-2.31,2.29-3.6.8-1.27,1.66-2.66,2.55-4.09.89-1.46,1.84-2.98,2.82-4.6.98-1.6,2-3.29,3.07-5.06,1.07-1.78,2.2-3.62,3.37-5.55,1.16-1.93,2.37-3.91,3.62-5.99,1.26-2.07,2.57-4.22,3.91-6.44,1.35-2.22,2.75-4.49,4.18-6.84"/>
  <path class="cls-1" d="M699.26,228.62c-.25.05-.49.18-.67.35-.2.18-.33.42-.44.71-.09.29-.15.62-.15,1.02s.05.86.15,1.36c.09.51.24,1.07.44,1.67.2.62.45,1.27.76,1.98.31.73.67,1.47,1.07,2.29.42.8.89,1.66,1.42,2.55.53.89,1.11,1.84,1.75,2.82.64.98,1.33,2,2.07,3.06.76,1.06,1.56,2.17,2.44,3.29.87,1.13,1.78,2.29,2.77,3.49.98,1.2,2.02,2.42,3.13,3.69,1.09,1.26,2.24,2.53,3.46,3.84,1.2,1.31,2.46,2.64,3.78,4,1.31,1.35,2.69,2.71,4.11,4.11,1.44,1.38,2.91,2.78,4.46,4.2,1.53,1.42,3.11,2.86,4.75,4.29,1.64,1.44,3.33,2.87,5.06,4.33,1.73,1.46,3.51,2.89,5.35,4.35,1.84,1.46,3.71,2.91,5.62,4.37,1.91,1.44,3.88,2.89,5.88,4.31,2,1.44,4.06,2.87,6.13,4.28,2.07,1.42,4.2,2.82,6.35,4.2,2.15,1.38,4.33,2.75,6.55,4.09,2.22,1.35,4.46,2.67,6.73,3.97,2.27,1.31,4.58,2.58,6.9,3.82,2.33,1.26,4.68,2.46,7.04,3.64,2.38,1.18,4.77,2.33,7.17,3.46,2.4,1.11,4.8,2.18,7.24,3.22,2.42,1.04,4.86,2.02,7.31,2.98,2.44.95,4.89,1.86,7.35,2.71,2.46.87,4.91,1.69,7.37,2.46,2.46.76,4.91,1.47,7.35,2.13,2.46.67,4.89,1.27,7.33,1.84,2.42.55,4.84,1.06,7.24,1.49,2.4.44,4.78.82,7.17,1.15,2.37.33,4.71.58,7.02.78,2.33.2,4.62.35,6.9.42,2.27.09,4.51.09,6.73.05,2.2-.05,4.37-.18,6.51-.36,2.15-.18,4.24-.42,6.29-.75,2.06-.31,4.08-.69,6.06-1.13,1.97-.45,3.89-.96,5.77-1.55,1.87-.58,3.71-1.24,5.48-1.96,1.78-.71,4.33-1.93,7.66-3.62"/>
  <path class="cls-2" d="M580.96,300.43c3.44-1.75,6.9-3.47,10.39-5.19,3.51-1.71,7.02-3.4,10.57-5.08,3.57-1.67,7.13-3.31,10.73-4.93,3.6-1.62,7.2-3.22,10.84-4.78,3.64-1.56,7.28-3.09,10.93-4.6,3.66-1.51,7.33-2.97,11.01-4.4,3.68-1.44,7.35-2.84,11.04-4.2,3.68-1.36,7.37-2.67,11.06-3.97,3.68-1.27,7.35-2.51,11.03-3.71,3.68-1.18,7.35-2.35,11.01-3.44,3.66-1.11,7.3-2.17,10.92-3.18,3.64-1.02,7.24-1.96,10.84-2.89,3.58-.91,7.15-1.76,10.7-2.58,3.55-.8,7.08-1.56,10.57-2.27,3.49-.71,6.95-1.36,10.39-1.96,3.44-.6,6.84-1.15,10.21-1.64,3.37-.49,6.7-.93,9.97-1.33,3.29-.38,6.55-.71,9.75-.98s6.37-.49,9.48-.65c3.13-.16,6.19-.25,9.21-.31,3.02-.05,5.99-.05,8.91,0"/>
  <path class="cls-2" d="M510.86,210.96c2.64-3.26,5.28-6.5,7.93-9.72,2.66-3.2,5.29-6.37,7.95-9.52,2.66-3.15,5.29-6.26,7.95-9.32,2.64-3.07,5.28-6.09,7.91-9.08,2.62-2.98,5.24-5.93,7.86-8.81,2.6-2.89,5.2-5.73,7.77-8.51,2.58-2.78,5.15-5.51,7.7-8.19,2.55-2.67,5.06-5.28,7.55-7.84,2.51-2.55,4.98-5.02,7.42-7.44"/>
  <path class="cls-1" d="M155.07,187.89c-.75.05-1.46.18-2.15.36-.69.18-1.33.42-1.93.75-.6.31-1.16.69-1.69,1.13-.51.45-.98.96-1.4,1.55-.42.58-.8,1.24-1.11,1.96-.33.71-.58,1.49-.8,2.35-.22.86-.36,1.76-.45,2.77-.09.98-.13,2.02-.11,3.15.04,1.11.13,2.29.27,3.55.16,1.24.38,2.55.67,3.93.29,1.36.65,2.8,1.09,4.29.42,1.51.93,3.06,1.49,4.68.58,1.62,1.22,3.29,1.95,5.02.71,1.73,1.51,3.53,2.38,5.37.87,1.84,1.82,3.73,2.84,5.68s2.13,3.95,3.31,5.99c1.18,2.06,2.44,4.13,3.77,6.28,1.35,2.13,2.75,4.31,4.26,6.53,1.49,2.22,3.06,4.49,4.71,6.79,1.66,2.31,3.38,4.64,5.2,7,1.8,2.37,3.69,4.77,5.68,7.2,1.96,2.44,4,4.89,6.13,7.39,2.13,2.47,4.33,4.98,6.6,7.51,2.27,2.53,4.64,5.08,7.06,7.64,2.44,2.57,4.93,5.15,7.51,7.73,2.57,2.6,5.22,5.2,7.93,7.8,2.73,2.6,5.51,5.22,8.37,7.84,2.86,2.6,5.79,5.22,8.77,7.84,2.98,2.6,6.04,5.2,9.17,7.81,3.11,2.6,6.29,5.19,9.53,7.77,3.24,2.58,6.53,5.13,9.88,7.68,3.35,2.55,6.75,5.06,10.21,7.57,3.46,2.49,6.97,4.97,10.53,7.42,3.55,2.46,7.15,4.86,10.81,7.24,3.64,2.4,7.33,4.75,11.06,7.06,3.73,2.31,7.5,4.58,11.3,6.82,3.78,2.22,7.62,4.4,11.48,6.55,3.88,2.15,7.75,4.24,11.68,6.28,3.91,2.04,7.84,4.02,11.81,5.95,3.95,1.93,7.93,3.8,11.92,5.62,3.98,1.82,7.99,3.57,11.99,5.26,4.02,1.69,8.04,3.31,12.06,4.86,4.02,1.56,8.04,3.06,12.06,4.48,4,1.4,8.02,2.75,12.03,4.02,4.02,1.27,8.01,2.46,11.99,3.57,3.98,1.13,7.95,2.16,11.92,3.11,3.95.96,7.88,1.84,11.77,2.62,3.91.8,7.79,1.51,11.63,2.13,3.86.62,7.68,1.16,11.44,1.6,3.78.45,7.53.82,11.23,1.09,3.71.27,7.37.45,10.97.55,3.62.09,7.19.09,10.7.02,3.51-.09,6.97-.27,10.37-.55,3.4-.27,6.75-.64,10.04-1.09,3.27-.47,6.49-1.02,9.64-1.66,3.17-.64,6.24-1.38,9.26-2.2,3.02-.84,5.97-1.75,8.84-2.77,2.86-1,5.66-2.11,8.37-3.29,2.71-1.2,5.35-2.47,7.9-3.86,2.55-1.36,5.02-2.82,7.4-4.38,2.38-1.55,4.68-3.18,6.88-4.89,2.2-1.73,4.31-3.53,6.33-5.42,2.02-1.89,3.95-3.88,5.79-5.93,1.84-2.06,3.57-4.18,5.2-6.4,1.64-2.2,3.18-4.49,4.62-6.86,1.46-2.37,2.78-4.82,4.02-7.33,1.26-2.51,2.38-5.09,3.42-7.75,1.04-2.64,1.97-5.37,2.8-8.15.82-2.78,1.55-5.62,2.16-8.53.64-2.89,1.15-5.86,1.56-8.88.4-3.02.71-6.09.91-9.22.2-3.13.31-6.29.31-9.52-.02-3.22-.13-6.5-.35-9.81-.2-3.31-.53-6.64-.95-10.02-.42-3.38-.93-6.8-1.55-10.26-.62-3.44-1.35-6.91-2.17-10.42-.82-3.51-1.75-7.02-2.77-10.57-1-3.55-2.11-7.11-3.33-10.7-1.2-3.58-2.49-7.17-3.89-10.77-1.38-3.6-2.87-7.2-4.44-10.81-1.56-3.62-3.22-7.22-4.97-10.84-1.75-3.6-3.57-7.2-5.48-10.81-1.91-3.58-3.89-7.17-5.97-10.73-2.06-3.58-4.2-7.13-6.42-10.66-2.2-3.55-4.49-7.06-6.84-10.53-2.37-3.49-4.78-6.95-7.28-10.37-2.47-3.44-5.02-6.82-7.62-10.19-2.62-3.37-5.28-6.68-7.99-9.95-2.73-3.27-5.49-6.51-8.31-9.7-2.82-3.2-5.68-6.33-8.59-9.42-2.91-3.07-5.84-6.11-8.84-9.1-2.98-2.97-6-5.88-9.04-8.73-3.06-2.86-6.13-5.66-9.24-8.37-3.11-2.73-6.24-5.39-9.39-7.97-3.15-2.6-6.31-5.11-9.5-7.55-3.18-2.44-6.37-4.8-9.57-7.1-3.2-2.29-6.4-4.49-9.61-6.62-3.2-2.11-6.4-4.17-9.61-6.11-3.2-1.96-6.4-3.84-9.57-5.62-3.18-1.78-6.37-3.47-9.52-5.08-3.15-1.6-6.28-3.13-9.39-4.55-3.11-1.42-6.2-2.75-9.26-3.97-3.06-1.24-6.08-2.38-9.08-3.42-2.98-1.04-5.95-1.98-8.86-2.82-2.91-.86-5.79-1.6-8.62-2.26-2.82-.64-5.6-1.18-8.33-1.64s-5.4-.8-8.02-1.06c-2.64-.25-5.19-.4-7.7-.45s-4.95,0-7.31.15c-2.38.15-4.69.38-6.93.73s-4.4.8-6.49,1.33c-2.09.55-4.09,1.18-6.04,1.91-1.95.75-3.8,1.56-5.57,2.49-1.78.93-3.48,1.95-5.09,3.06-1.6,1.11-3.13,2.31-4.57,3.6-1.42,1.29-2.77,2.67-4.02,4.13-1.26,1.47-2.42,3.02-3.49,4.68-1.07,1.64-2.04,3.35-2.93,5.15-.87,1.82-1.66,3.69-2.35,5.66-.69,1.96-1.27,4-1.76,6.11-.49,2.11-.87,4.29-1.18,6.55-.29,2.26-.47,4.58-.56,6.97-.09,2.38-.09,4.84.02,7.37.11,2.51.33,5.08.64,7.71.31,2.64.73,5.33,1.24,8.06.51,2.75,1.13,5.53,1.84,8.37s1.51,5.73,2.42,8.64c.91,2.93,1.93,5.89,3.02,8.9,1.11,3,2.31,6.04,3.6,9.11,1.31,3.07,2.69,6.17,4.18,9.3,1.49,3.13,3.06,6.28,4.73,9.44,1.67,3.18,3.44,6.37,5.28,9.57,1.86,3.22,3.78,6.44,5.8,9.66,2.02,3.24,4.13,6.48,6.33,9.72,2.18,3.24,4.46,6.5,6.8,9.73,2.35,3.24,4.77,6.48,7.28,9.72,2.49,3.24,5.08,6.48,7.71,9.68,2.66,3.22,5.37,6.42,8.15,9.61,2.78,3.18,5.64,6.35,8.55,9.5,2.91,3.15,5.89,6.28,8.91,9.37,3.04,3.09,6.13,6.15,9.26,9.19,3.15,3.04,6.35,6.04,9.59,9.01,3.24,2.97,6.53,5.88,9.86,8.77,3.33,2.89,6.71,5.73,10.13,8.51,3.4,2.8,6.86,5.55,10.33,8.26,3.49,2.69,7,5.33,10.55,7.93,3.55,2.6,7.11,5.13,10.7,7.62,3.6,2.47,7.2,4.89,10.84,7.26,3.62,2.37,7.28,4.66,10.93,6.9s7.31,4.4,10.99,6.51c3.69,2.11,7.37,4.13,11.04,6.11,3.68,1.96,7.37,3.86,11.04,5.68,3.68,1.82,7.35,3.57,11.01,5.26,3.66,1.67,7.31,3.27,10.95,4.78,3.64,1.53,7.26,2.98,10.86,4.35,3.6,1.38,7.19,2.67,10.75,3.89,3.55,1.2,7.08,2.35,10.59,3.4,3.51,1.06,6.97,2.02,10.42,2.93,3.44.89,6.84,1.71,10.21,2.44,3.37.75,6.7,1.4,9.99,1.96,3.29.58,6.53,1.07,9.73,1.49,3.2.42,6.35.75,9.46,1.02,3.09.25,6.15.42,9.15.53,3,.09,5.95.13,8.84.07,2.89-.05,5.73-.2,8.5-.4,2.78-.2,5.49-.49,8.15-.84,2.66-.36,5.24-.78,7.77-1.29,2.53-.49,5-1.06,7.39-1.69,2.4-.66,4.73-1.35,7-2.13,2.26-.76,4.46-1.6,6.59-2.51,2.11-.89,4.17-1.86,6.17-2.87,1.98-1.04,3.89-2.11,5.73-3.26,1.86-1.13,3.62-2.33,5.33-3.58,1.69-1.24,3.31-2.55,4.88-3.89,1.56-1.35,3.04-2.75,4.46-4.2,1.4-1.44,2.75-2.93,4.02-4.46,1.26-1.53,2.46-3.11,3.58-4.71,1.13-1.62,2.18-3.26,3.17-4.95.98-1.67,1.89-3.38,2.75-5.13.84-1.73,1.62-3.51,2.33-5.29.71-1.8,1.35-3.6,1.93-5.44.56-1.84,1.09-3.69,1.53-5.57.45-1.87.84-3.77,1.16-5.66.33-1.89.58-3.8.78-5.71.22-1.93.36-3.84.45-5.77.09-1.91.13-3.84.11-5.77-.02-1.91-.09-3.82-.2-5.73-.13-1.91-.29-3.82-.51-5.71-.2-1.89-.47-3.77-.76-5.62-.31-1.87-.64-3.71-1.02-5.55-.38-1.82-.8-3.62-1.26-5.42-.45-1.78-.95-3.53-1.47-5.26-.51-1.75-1.07-3.44-1.64-5.11-.58-1.67-1.18-3.31-1.8-4.93-.64-1.6-1.27-3.17-1.95-4.71-.65-1.53-1.35-3.02-2.04-4.48-.69-1.46-1.4-2.86-2.13-4.24-.73-1.36-1.44-2.67-2.18-3.97-.73-1.27-1.47-2.49-2.2-3.68-.75-1.18-1.49-2.31-2.22-3.4-.75-1.07-1.47-2.11-2.2-3.07-.73-.98-1.44-1.91-2.15-2.77-.71-.87-1.4-1.69-2.07-2.44-.67-.76-1.33-1.46-1.98-2.11-.64-.64-1.26-1.22-1.86-1.75s-1.16-1-1.71-1.4c-.55-.42-1.06-.76-1.55-1.06-.49-.29-.95-.53-1.36-.71-.42-.16-.8-.27-1.16-.35-.35-.05-.65-.05-.93.02"/>
  <path class="cls-2" d="M580.91,132.54c2.44-2.44,4.86-4.78,7.24-7.06,2.4-2.29,4.75-4.51,7.06-6.64,2.33-2.15,4.6-4.2,6.86-6.2,2.24-1.98,4.44-3.89,6.6-5.73,2.17-1.82,4.29-3.58,6.37-5.24,2.07-1.67,4.09-3.26,6.08-4.77,1.98-1.49,3.91-2.91,5.8-4.24,1.87-1.33,3.69-2.58,5.48-3.73,1.76-1.15,3.49-2.22,5.15-3.18,1.66-.98,3.26-1.86,4.8-2.66,1.55-.78,3.02-1.49,4.46-2.09,1.42-.62,2.77-1.13,4.06-1.55,1.29-.42,2.53-.75,3.67-.98,1.16-.24,2.26-.38,3.29-.44,1.02-.04,1.98,0,2.86.15.89.13,1.71.36,2.46.69.75.31,1.42.73,2.02,1.24.6.51,1.13,1.11,1.58,1.78.45.69.82,1.47,1.13,2.33.31.87.55,1.82.71,2.86.15,1.04.24,2.17.25,3.37,0,1.22-.05,2.51-.2,3.88-.15,1.38-.35,2.84-.64,4.37-.29,1.53-.65,3.15-1.09,4.84-.42,1.69-.93,3.44-1.51,5.28-.58,1.84-1.22,3.75-1.95,5.73-.73,1.96-1.51,4.02-2.38,6.13-.86,2.11-1.78,4.28-2.78,6.51-1,2.24-2.06,4.53-3.18,6.9-1.15,2.35-2.33,4.77-3.6,7.22-1.26,2.47-2.58,4.98-3.97,7.55-1.38,2.57-2.82,5.17-4.33,7.82-1.49,2.66-3.06,5.35-4.68,8.1-1.62,2.73-3.27,5.51-5,8.31-1.73,2.82-3.49,5.66-5.31,8.53-1.84,2.87-3.69,5.77-5.62,8.7-1.91,2.93-3.88,5.88-5.88,8.84-2,2.97-4.06,5.95-6.13,8.95-2.09,3-4.2,6.02-6.35,9.04-2.17,3.02-4.35,6.06-6.57,9.1-2.2,3.02-4.46,6.06-6.73,9.1-2.26,3.04-4.55,6.08-6.88,9.1-2.31,3.04-4.64,6.06-7,9.06-2.35,3.02-4.71,6-7.1,8.99-2.38,2.98-4.77,5.95-7.17,8.9-2.4,2.95-4.8,5.86-7.2,8.75-2.42,2.91-4.82,5.77-7.22,8.61-2.42,2.84-4.82,5.66-7.2,8.42-2.4,2.78-4.8,5.51-7.17,8.21-2.38,2.71-4.75,5.37-7.1,7.99-2.35,2.6-4.68,5.19-6.99,7.71-2.31,2.53-4.6,5-6.86,7.42-2.27,2.44-4.51,4.8-6.71,7.13-2.2,2.31-4.38,4.58-6.53,6.8-2.13,2.2-4.24,4.35-6.31,6.44-2.06,2.09-4.09,4.13-6.08,6.09-1.98,1.96-3.91,3.88-5.8,5.71-1.89,1.84-3.73,3.62-5.53,5.33-1.8,1.69-3.53,3.33-5.22,4.91-1.67,1.56-3.31,3.06-4.88,4.49-1.56,1.42-3.07,2.78-4.53,4.06-1.46,1.29-2.84,2.49-4.15,3.64-1.33,1.13-2.57,2.2-3.77,3.18-1.18.98-2.29,1.91-3.33,2.75-1.06.84-2.02,1.6-2.91,2.29-.91.67-1.73,1.29-2.47,1.84-.75.53-1.4,1-2,1.38-.58.4-1.09.71-1.53.95s-.78.4-1.04.49c-.27.11-.45.13-.56.07-.09-.05-.11-.18-.04-.36.05-.2.22-.45.45-.8.24-.33.56-.73.96-1.18.42-.47.91-1,1.49-1.6.58-.6,1.24-1.26,2-1.98.75-.73,1.58-1.51,2.51-2.35.93-.86,1.95-1.75,3.04-2.71,1.09-.95,2.27-1.96,3.55-3.04,1.27-1.06,2.62-2.18,4.06-3.35,1.42-1.16,2.95-2.38,4.55-3.66,1.6-1.26,3.27-2.57,5.04-3.91,1.75-1.36,3.58-2.75,5.51-4.18,1.91-1.44,3.91-2.91,5.99-4.4,2.07-1.51,4.22-3.06,6.44-4.62,2.22-1.58,4.51-3.18,6.88-4.8,2.37-1.64,4.8-3.29,7.3-4.97,2.51-1.67,5.08-3.38,7.71-5.09,2.64-1.73,5.33-3.46,8.1-5.2,2.77-1.76,5.59-3.53,8.46-5.29,2.89-1.78,5.82-3.57,8.82-5.35,2.98-1.8,6.02-3.6,9.13-5.39,3.09-1.8,6.24-3.6,9.42-5.4,3.2-1.8,6.44-3.58,9.72-5.37,3.29-1.8,6.6-3.57,9.97-5.35,3.37-1.76,6.77-3.53,10.21-5.26"/>
  <path class="cls-2" d="M102.46,247.92c1.2-1.35,2.47-2.71,3.78-4.04,1.33-1.35,2.69-2.67,4.13-4,1.42-1.33,2.91-2.64,4.44-3.93,1.53-1.29,3.09-2.58,4.73-3.84,1.62-1.26,3.29-2.49,5-3.71,1.71-1.22,3.47-2.4,5.28-3.57,1.8-1.16,3.64-2.31,5.51-3.4,1.89-1.11,3.8-2.18,5.75-3.24,1.96-1.04,3.95-2.04,5.95-3.02,2.02-.96,4.08-1.89,6.15-2.78,2.07-.89,4.18-1.75,6.31-2.55,2.11-.8,4.28-1.56,6.44-2.29,2.17-.71,4.37-1.38,6.57-2,2.22-.62,4.44-1.18,6.68-1.71,2.26-.51,4.49-.98,6.77-1.38,2.26-.42,4.53-.78,6.82-1.09,2.27-.29,4.55-.55,6.84-.73,2.29-.2,4.58-.33,6.88-.4,2.29-.07,4.58-.07,6.88-.04,2.27.05,4.57.16,6.84.33,2.27.18,4.55.4,6.8.71,2.26.29,4.49.64,6.73,1.06,2.24.42,4.46.91,6.66,1.46s4.38,1.15,6.55,1.82c2.17.67,4.31,1.42,6.44,2.2,2.13.8,4.22,1.66,6.31,2.58,2.07.93,4.13,1.91,6.15,2.95,2.02,1.06,4.02,2.17,5.99,3.33,1.96,1.16,3.91,2.38,5.8,3.68,1.91,1.27,3.78,2.62,5.62,4.02,1.84,1.4,3.64,2.86,5.42,4.37,1.76,1.53,3.49,3.09,5.2,4.71,1.69,1.62,3.35,3.29,4.97,5.02,1.64,1.71,3.22,3.49,4.75,5.31,1.55,1.82,3.06,3.69,4.51,5.6,1.47,1.91,2.89,3.86,4.28,5.86,1.38,2,2.73,4.04,4.02,6.13,1.31,2.07,2.57,4.18,3.78,6.35,1.2,2.15,2.38,4.33,3.51,6.55,1.13,2.22,2.22,4.46,3.27,6.73,1.04,2.27,2.06,4.58,3.02,6.91.96,2.33,1.87,4.68,2.77,7.04.87,2.37,1.73,4.75,2.53,7.15.8,2.4,1.56,4.8,2.27,7.24.73,2.42,1.42,4.86,2.06,7.3s1.26,4.88,1.82,7.33c.58,2.44,1.11,4.89,1.62,7.33.49,2.46.96,4.89,1.38,7.31.44,2.44.84,4.86,1.2,7.28.36,2.4.71,4.8,1.02,7.19.31,2.37.58,4.73.84,7.08.25,2.33.47,4.66.67,6.95.2,2.29.38,4.55.53,6.79.15,2.22.29,4.42.4,6.59.11,2.17.2,4.29.27,6.39.07,2.09.15,4.13.18,6.13.05,2,.07,3.97.09,5.88.04,1.91.04,3.77.04,5.57s0,3.57-.02,5.26c0,1.69-.02,3.35-.04,4.91-.04,1.58-.05,3.11-.07,4.57-.02,1.46-.04,2.84-.05,4.17-.02,1.33-.02,2.58-.02,3.77-.02,1.2-.02,2.31,0,3.35.02,1.06.04,2.02.07,2.91.04.89.09,1.71.15,2.46.07.75.15,1.4.25,1.98.09.58.22,1.09.36,1.51.13.42.29.76.47,1.02.2.25.4.42.64.51.24.09.51.09.8,0,.29-.07.62-.25.98-.51.35-.25.73-.6,1.16-1.02.42-.44.87-.95,1.36-1.55"/>
  <path class="cls-1" d="M144.03,299.19c3.89.58,6.77.96,8.64,1.15,1.87.16,3.71.27,5.53.35,1.8.05,3.57.05,5.29-.02,1.71-.05,3.4-.18,5.04-.35,1.66-.18,3.24-.42,4.8-.71,1.55-.27,3.06-.62,4.51-1.02,1.46-.4,2.86-.86,4.22-1.36,1.36-.51,2.67-1.07,3.93-1.67,1.26-.62,2.46-1.27,3.6-1.98,1.15-.73,2.24-1.47,3.29-2.29,1.04-.8,2.02-1.66,2.95-2.55s1.8-1.84,2.62-2.82,1.58-2,2.29-3.06c.69-1.06,1.35-2.17,1.93-3.29s1.13-2.29,1.6-3.49c.47-1.2.89-2.42,1.24-3.69.36-1.26.67-2.53.91-3.84.25-1.31.45-2.64.58-4,.15-1.35.22-2.71.25-4.11.02-1.38,0-2.78-.09-4.2-.07-1.42-.2-2.86-.38-4.29-.18-1.44-.42-2.87-.69-4.33s-.6-2.89-.98-4.35c-.38-1.46-.8-2.91-1.26-4.37-.45-1.44-.96-2.89-1.51-4.31-.55-1.44-1.15-2.87-1.76-4.28-.62-1.42-1.29-2.82-1.98-4.2-.69-1.38-1.42-2.75-2.18-4.09-.76-1.35-1.55-2.67-2.37-3.97-.82-1.31-1.67-2.58-2.53-3.82-.87-1.26-1.76-2.46-2.67-3.64-.93-1.18-1.86-2.33-2.8-3.46-.95-1.11-1.89-2.18-2.87-3.22-.96-1.04-1.95-2.02-2.95-2.98-.98-.95-1.98-1.86-2.98-2.71-1-.87-2-1.69-3-2.46-1-.76-2-1.47-2.98-2.13-1-.67-1.98-1.27-2.97-1.84-.96-.55-1.93-1.06-2.87-1.49-.95-.44-1.87-.82-2.8-1.15-.91-.33-1.8-.58-2.66-.78-.87-.2-1.71-.35-2.53-.42-.82-.09-1.6-.09-2.37-.05"/>
</svg>