<?xml version="1.0" encoding="UTF-8"?>
<svg xmlns="http://www.w3.org/2000/svg" xmlns:xlink="http://www.w3.org/1999/xlink" viewBox="0 0 1000 314">
  <g>
    <rect x="335.94" y="54.8" width="27.66" height="138.82"/>
    <path d="M740.8,171.71c-3.04,0-7.01-.65-8.14-1.96-1.13-1.3-1.7-3.61-1.7-6.91v-54.01c0-18.09-4.92-32.14-14.74-42.14-9.83-10-24.14-15-42.92-15-16.53,0-29.97,4-40.31,12-10.35,8-16.83,18.96-19.44,32.88l28.44,1.83c1.91-7.65,5.39-13.44,10.44-17.35,5.04-3.91,12-5.87,20.87-5.87,9.92,0,17.39,2.65,22.44,7.96,5.04,5.31,7.57,13.35,7.57,24.14l-47.75,9.13c-15.13,2.96-26.31,7.79-33.53,14.48-7.22,6.7-10.83,16.05-10.83,28.05s4.31,21.31,12.92,27.92c8.61,6.61,20.13,9.92,34.57,9.92,8.18,0,15.79-1.35,22.83-4.05,7.04-2.69,12.87-6.39,17.48-11.09.98-1,1.87-2.03,2.69-3.09,1.59-2.05,4.75-1.47,5.58.99.3.88.63,1.71.99,2.49,2.09,4.44,5.26,7.61,9.52,9.52,4.26,1.92,9.35,2.87,15.27,2.87,2.09,0,4.09-.07,6-.26,7.38-.72,13.88-2.69,13.88-2.69v-22.43s-7.61,2.68-12.14,2.68ZM698.35,156.57c-3.31,5.74-7.92,10.22-13.83,13.44-5.92,3.22-13.05,4.83-21.4,4.83-7.31,0-13.01-1.61-17.09-4.83-4.09-3.22-6.13-7.78-6.13-13.7,0-5.22,1.7-9.52,5.09-12.92,3.39-3.39,9.26-5.87,17.61-7.44l31.99-6.15c4.52-.87,8.71,2.59,8.71,7.2,0,7.31-1.66,13.83-4.96,19.57Z"/>
    <path d="M283.99,58.59c-6.87-4.61-15.53-6.91-25.96-6.91-7.31,0-14.09,1.35-20.35,4.05-6.26,2.7-11.57,6.83-15.92,12.39-.24.31-.48.63-.71.95-1.69,2.33-5.37,1.21-5.45-1.68l-.35-12.58h-25.31v138.82h27.66v-80.89c0-12.35,3.04-21.74,9.13-28.18,6.09-6.43,14-9.66,23.75-9.66,6.43,0,11.65,1.48,15.66,4.44,4,2.96,6.87,7.22,8.61,12.79,1.74,5.57,2.61,12.44,2.61,20.61v80.89h27.66v-89.24c0-10.09-1.79-19.09-5.35-27.01-3.57-7.91-8.79-14.18-15.66-18.79Z"/>
    <path d="M565.06,57.81c-6.87-4.09-15.18-6.13-24.92-6.13-7.48,0-14.18,1.48-20.09,4.44-5.92,2.96-10.74,7.18-14.48,12.66-.08.11-.15.23-.23.34-2.63,3.95-8.28,3.91-10.95-.02-1.85-2.72-3.99-5.18-6.44-7.37-7.48-6.7-17.14-10.05-28.96-10.05-6.79,0-13.05,1.48-18.79,4.44-5.74,2.96-10.57,7.14-14.48,12.53l-.06.09c-1.72,2.37-5.46,1.21-5.53-1.72l-.28-12.2h-25.31v138.82h27.66v-81.41c0-7.65,1.21-14.31,3.65-19.96,2.44-5.65,5.78-9.96,10.05-12.92,4.26-2.96,9.35-4.44,15.27-4.44,9.39,0,16.05,3.26,19.96,9.79,3.91,6.52,5.87,15.7,5.87,27.53v81.41h26.36v-81.41c0-7.83,1.17-14.52,3.52-20.09,2.35-5.57,5.7-9.83,10.05-12.79,4.35-2.96,9.39-4.44,15.13-4.44,8.87,0,15.48,3.05,19.83,9.13,4.35,6.09,6.52,15.13,6.52,27.14v82.46h27.66v-89.24c0-11.31-1.79-20.88-5.35-28.7-3.57-7.83-8.79-13.79-15.66-17.88Z"/>
    <path d="M834.08,54.8c-10.17,0-17.79,2.87-23.62,8.61-1.58,1.56-3.02,3.37-4.31,5.44-1.62,2.58-5.55,1.62-5.64-1.43l-.36-12.62h-25.31v138.82h27.66v-81.94c0-7.48,1.17-13.57,3.52-18.27,2.35-4.7,5.87-8.18,10.57-10.44,4.7-2.26,10.22-3.39,17.48-3.39,14.63,0,27.82,4.44,27.82,4.44v-24.79s-13-4.44-27.82-4.44Z"/>
    <path d="M936.37,196.76c-13.57,0-25.27-2.96-35.1-8.87-9.83-5.91-17.4-14.35-22.7-25.31-5.31-10.96-7.96-23.75-7.96-38.36s2.65-27.35,7.96-38.23c5.3-10.87,12.83-19.31,22.57-25.31,9.74-6,21.22-9,34.44-9,12.53,0,23.57,2.92,33.14,8.74,9.57,5.83,17,14.22,22.31,25.18,5.3,10.96,7.96,24.18,7.96,39.66v7.04h-99.68c.69,13.57,4.3,23.75,10.83,30.53,6.52,6.79,15.35,10.18,26.49,10.18,8.18,0,14.96-1.91,20.35-5.74,5.39-3.82,9.13-8.96,11.22-15.39l28.7,1.83c-3.65,12.88-10.83,23.27-21.53,31.18-10.7,7.92-23.7,11.87-39.01,11.87ZM904.15,111.43h61.1c2.5,0,4.38-2.22,4.04-4.69-1.36-10-4.73-17.57-10.09-22.7-6.18-5.91-14.05-8.87-23.62-8.87s-18.05,3.09-24.4,9.26c-5.44,5.29-9.12,12.64-11.05,22.07-.52,2.54,1.41,4.94,4,4.94Z"/>
    <circle cx="349.77" cy="17.49" r="16.49"/>
    <path d="M140.34,193.63h30.01L103.55,8.36h-35.75L1,193.63h30.01l3.7-10.7c7.51-21.71,27.96-36.28,50.94-36.28h0c22.88,0,43.27,14.45,50.85,36.03l3.85,10.94ZM85.55,35.23l30.29,87.62c.86,2.49-.99,5.09-3.62,5.09h-53.06c-2.63,0-4.48-2.59-3.63-5.08l30.02-87.63Z"/>
    <path d="M699.69,11.85h-56.19c-9.45,0-14.51,4.95-14.51,11.07s5.05,11.07,14.51,11.07h56.19c9.45,0,14.51-4.95,14.51-11.07s-5.05-11.07-14.51-11.07Z"/>
  </g>
  <g>
    <path d="M1.14,252.49v9.2h44.39c1.81,0,2.85,2.08,1.73,3.5-2.78,3.55-7.11,7.82-11.52,10.52l7.77,6.26c7.46-5.28,17.57-18.7,21.11-24.58l-5.3-4.9H1.14Z"/>
    <rect x="82.94" y="257.69" width="48.41" height="10.18"/>
    <path d="M23.46,267.57v6.79c0,12.37-1.81,20.36-11.39,26.99-2.79,2.04-5.5,3.32-7.92,4.15l8.75,7.16c20.58-11.01,20.96-26.39,20.96-45.09h-10.4Z"/>
    <rect x="228.61" y="273.98" width="61.45" height="11.01"/>
    <rect x="76.61" y="294.55" width="61" height="10.64"/>
    <path d="M218.22,260.93l-6.53-5.35h-58.54v9.35h44.61c1.75,0,2.79,1.95,1.81,3.4-3.27,4.82-8.08,10.51-13.73,15.54-1.82,1.63-4.58,1.65-6.44.06-3.7-3.14-7.24-6-9.59-7.77l-7.99,6.41c4.52,3.24,12.21,10.03,16.59,14.48,4.9,5.05,11.24,12.06,14.4,16.29l8.82-7.01c-2.94-3.54-7.39-8.44-11.69-12.74,10.63-8.6,22.85-23.83,28.27-32.65Z"/>
    <path d="M362.62,282.42l-6.97-6.66c-9.04,10.03-23.02,18.3-34.25,22.12-1.42.48-2.89-.57-2.89-2.07v-44.68h-10.25v55.14l5.86,5.11c17.72-5.81,38.17-16.6,48.5-28.97Z"/>
  </g>
</svg>
