<?xml version="1.0" encoding="UTF-8"?>
<svg id="Layer_3" data-name="Layer 3" xmlns="http://www.w3.org/2000/svg" xmlns:xlink="http://www.w3.org/1999/xlink" viewBox="0 0 1000 500">
  <defs>
    <style>
      .cls-1, .cls-2, .cls-3 {
        fill: none;
      }

      .cls-2 {
        stroke: #ff2a17;
      }

      .cls-2, .cls-3 {
        stroke-miterlimit: 10;
        stroke-width: 8px;
      }

      .cls-3 {
        stroke: #78b0ff;
      }

      .cls-4 {
        clip-path: url(#clippath);
      }
    </style>
    <clipPath id="clippath">
      <rect class="cls-1" x="1130" y="-634" width="512" height="512"/>
    </clipPath>
  </defs>
  <g class="cls-4">
    <image width="3840" height="2880" transform="translate(971.33 -1681.41) scale(.72)" xlink:href="../animare_stroke_tex (00000).png"/>
  </g>
  <path class="cls-3" d="M917.89,237.65c2.35-1.69,4.62-3.38,6.83-5.11,2.2-1.71,4.34-3.44,6.38-5.16,2.07-1.73,4.04-3.45,5.93-5.2,1.9-1.75,3.72-3.49,5.44-5.24,1.75-1.75,3.4-3.49,4.96-5.24,1.58-1.75,3.06-3.47,4.45-5.22,1.39-1.73,2.7-3.45,3.91-5.18,1.22-1.73,2.35-3.44,3.38-5.13,1.03-1.71,1.97-3.38,2.84-5.05.85-1.67,1.6-3.32,2.27-4.96.66-1.63,1.22-3.25,1.71-4.84.47-1.6.85-3.17,1.13-4.71.3-1.54.49-3.06.58-4.54.09-1.5.09-2.97,0-4.39-.09-1.43-.28-2.82-.56-4.19-.28-1.35-.66-2.68-1.13-3.98-.45-1.28-1.01-2.53-1.67-3.76-.64-1.2-1.39-2.37-2.22-3.49-.83-1.15-1.75-2.22-2.76-3.27-1-1.03-2.08-2.03-3.27-2.97-1.18-.96-2.44-1.84-3.77-2.68-1.35-.86-2.76-1.65-4.26-2.4-1.5-.73-3.08-1.43-4.73-2.07-1.65-.64-3.38-1.22-5.18-1.75-1.8-.54-3.68-1.01-5.61-1.43s-3.94-.77-6.01-1.07c-2.07-.3-4.19-.54-6.38-.73-2.18-.17-4.43-.3-6.72-.36-2.29-.06-4.66-.08-7.04,0-2.4.06-4.84.17-7.34.36-2.48.19-5.01.43-7.59.73-2.57.3-5.18.68-7.81,1.09-2.65.43-5.31.92-8,1.48-2.7.54-5.43,1.16-8.17,1.84s-5.5,1.41-8.28,2.2c-2.78.81-5.56,1.65-8.36,2.57-2.8.92-5.6,1.9-8.41,2.93-2.82,1.03-5.61,2.12-8.43,3.29-2.8,1.15-5.6,2.35-8.39,3.61-2.8,1.28-5.58,2.59-8.34,3.96-2.76,1.37-5.52,2.8-8.24,4.28-2.72,1.48-5.43,3-8.11,4.58-2.67,1.58-5.31,3.21-7.94,4.9-2.61,1.67-5.18,3.4-7.72,5.16-2.55,1.78-5.05,3.59-7.49,5.45-2.46,1.86-4.86,3.76-7.23,5.71-2.35,1.93-4.66,3.91-6.91,5.93-2.23,2.01-4.43,4.07-6.55,6.16-2.14,2.08-4.21,4.21-6.21,6.37-1.99,2.14-3.92,4.32-5.78,6.53-1.88,2.22-3.66,4.45-5.37,6.7-1.73,2.25-3.36,4.54-4.92,6.83-1.56,2.31-3.04,4.64-4.43,6.97-1.39,2.35-2.7,4.69-3.92,7.08-1.22,2.37-2.37,4.75-3.4,7.13-1.05,2.38-2.01,4.79-2.85,7.19-.86,2.4-1.63,4.81-2.29,7.23-.68,2.4-1.24,4.83-1.71,7.23s-.85,4.81-1.11,7.21c-.28,2.4-.45,4.81-.51,7.19-.08,2.38-.04,4.75.11,7.12.13,2.35.38,4.69.73,7.02.34,2.33.81,4.64,1.35,6.93.56,2.29,1.24,4.56,2.01,6.82.77,2.23,1.65,4.45,2.63,6.65.98,2.18,2.07,4.34,3.27,6.48,1.2,2.12,2.5,4.22,3.89,6.27,1.41,2.07,2.91,4.09,4.53,6.08,1.61,1.99,3.32,3.92,5.13,5.84,1.82,1.92,3.74,3.77,5.75,5.6,2.01,1.82,4.13,3.59,6.33,5.31,2.22,1.73,4.53,3.42,6.91,5.05,2.4,1.61,4.9,3.21,7.47,4.73,2.59,1.52,5.26,3,8.02,4.41,2.76,1.43,5.61,2.8,8.54,4.09,2.93,1.31,5.93,2.55,9.03,3.76,3.1,1.18,6.27,2.33,9.52,3.4,3.25,1.07,6.57,2.07,9.97,3.02,3.4.96,6.85,1.84,10.38,2.67,3.53.81,7.13,1.58,10.8,2.27,3.66.69,7.38,1.31,11.15,1.88,3.77.58,7.6,1.07,11.47,1.5,3.89.43,9.8.96,17.76,1.56"/>
  <path class="cls-2" d="M702.4,234.58c2.87-.53,5.8-1,8.75-1.41,2.95-.41,5.93-.77,8.94-1.05,3-.3,6.05-.53,9.11-.71,3.06-.17,6.14-.28,9.24-.34,3.1-.06,6.23-.06,9.37,0,3.14.06,6.29.19,9.46.36,3.17.19,6.37.41,9.56.69,3.19.3,6.38.64,9.59,1.05,3.19.39,6.4.84,9.61,1.35,3.21.51,6.42,1.07,9.63,1.69,3.21.6,6.4,1.28,9.61,1.99,3.19.69,6.38,1.46,9.56,2.27,3.17.81,6.33,1.67,9.48,2.55,3.15.9,6.27,1.84,9.39,2.84,3.12.98,6.2,2.01,9.28,3.06,3.06,1.07,6.1,2.16,9.11,3.3,3.02,1.13,5.99,2.29,8.94,3.49,2.95,1.2,5.88,2.44,8.75,3.7,2.87,1.26,5.73,2.55,8.52,3.85,2.8,1.31,5.56,2.65,8.26,4.02,2.72,1.35,5.39,2.72,8,4.11,2.63,1.39,5.2,2.8,7.72,4.22,2.52,1.43,4.98,2.85,7.4,4.3,2.4,1.43,4.75,2.87,7.04,4.34,2.29,1.45,4.53,2.91,6.7,4.36,2.18,1.46,4.28,2.91,6.33,4.37,2.03,1.45,4.02,2.89,5.91,4.34,1.92,1.43,3.76,2.85,5.52,4.28,1.76,1.41,3.47,2.82,5.09,4.21,1.63,1.39,3.17,2.74,4.66,4.09s2.87,2.68,4.19,3.98c1.33,1.3,2.57,2.57,3.74,3.83,1.16,1.24,2.25,2.46,3.27,3.64,1,1.18,1.93,2.33,2.78,3.45.83,1.11,1.6,2.2,2.27,3.23.68,1.03,1.28,2.03,1.78,2.99.53.96.96,1.86,1.3,2.72.36.86.62,1.69.79,2.46.19.77.28,1.48.3,2.14,0,.66-.06,1.28-.23,1.84-.15.54-.38,1.05-.69,1.48-.32.45-.71.83-1.2,1.16-.49.32-1.05.58-1.69.79-.64.19-1.35.34-2.16.41-.79.08-1.67.09-2.63.04s-1.97-.17-3.08-.36c-1.11-.17-2.27-.41-3.53-.73-1.24-.32-2.57-.69-3.96-1.15-1.39-.45-2.84-.98-4.36-1.56-1.54-.58-3.12-1.24-4.77-1.95s-4.26-1.93-7.81-3.64"/>
  <path class="cls-2" d="M577.07,399.92c-.17.09-.32.11-.51.06-.17-.06-.36-.19-.54-.39-.19-.21-.38-.49-.56-.84s-.38-.77-.56-1.28c-.19-.51-.36-1.07-.54-1.71-.17-.64-.34-1.35-.51-2.12-.15-.77-.3-1.61-.45-2.52-.13-.9-.26-1.86-.38-2.89-.11-1.03-.21-2.1-.28-3.25-.07-1.15-.13-2.35-.15-3.6-.04-1.24-.06-2.55-.04-3.91.02-1.35.06-2.74.11-4.21.07-1.45.17-2.93.3-4.47.13-1.54.28-3.12.47-4.71.19-1.61.43-3.27.68-4.96.26-1.69.56-3.4.9-5.14.34-1.75.71-3.51,1.15-5.31.41-1.8.88-3.6,1.37-5.46.51-1.84,1.07-3.7,1.65-5.56.6-1.88,1.24-3.77,1.92-5.67.69-1.92,1.43-3.81,2.22-5.73.79-1.93,1.61-3.85,2.5-5.78.88-1.92,1.82-3.85,2.82-5.76,1-1.93,2.03-3.85,3.12-5.76,1.09-1.92,2.25-3.81,3.45-5.71,1.2-1.9,2.44-3.77,3.76-5.65,1.31-1.86,2.68-3.72,4.11-5.54,1.41-1.84,2.89-3.64,4.41-5.43,1.54-1.8,3.14-3.55,4.77-5.29,1.65-1.73,3.34-3.44,5.09-5.13,1.77-1.67,3.57-3.3,5.43-4.92,1.88-1.61,3.79-3.19,5.76-4.73,1.97-1.52,4-3.02,6.08-4.49,2.07-1.45,4.21-2.87,6.38-4.24,2.18-1.37,4.41-2.69,6.7-3.96"/>
  <path class="cls-2" d="M458.33,376.21c3.12,2.38,6.16,4.75,9.14,7.06,2.99,2.33,5.9,4.6,8.75,6.83,2.84,2.23,5.61,4.43,8.32,6.57,2.69,2.14,5.31,4.24,7.87,6.29,2.55,2.05,5.03,4.04,7.42,5.97,2.4,1.93,4.71,3.81,6.95,5.63,2.25,1.8,4.39,3.57,6.48,5.26,2.07,1.69,4.07,3.32,5.97,4.88,1.92,1.56,3.74,3.04,5.48,4.47,1.75,1.41,3.4,2.76,4.98,4.04,1.56,1.26,3.06,2.46,4.45,3.59,1.41,1.11,2.72,2.14,3.94,3.1,1.24.96,2.37,1.84,3.44,2.63,1.05.81,2.01,1.5,2.89,2.14.88.62,1.69,1.15,2.4,1.6s1.33.83,1.88,1.09c.54.28,1,.47,1.37.56.38.09.66.09.86,0,.21-.09.34-.28.38-.54.04-.28,0-.64-.11-1.09-.11-.47-.3-1.01-.58-1.65-.26-.66-.62-1.39-1.03-2.22-.43-.83-.92-1.75-1.48-2.76-.58-1.01-1.22-2.12-1.92-3.3-.71-1.2-1.48-2.5-2.33-3.87-.85-1.37-1.75-2.84-2.72-4.39-.98-1.54-2.01-3.19-3.1-4.92-1.09-1.73-2.25-3.53-3.45-5.43s-2.48-3.87-3.79-5.93c-1.31-2.07-2.67-4.19-4.09-6.42-1.41-2.22-2.87-4.51-4.37-6.87-1.52-2.38-3.06-4.83-4.66-7.34-1.6-2.52-3.21-5.11-4.88-7.77-1.67-2.65-3.36-5.37-5.11-8.17-1.73-2.78-3.49-5.63-5.28-8.54-1.8-2.91-3.6-5.88-5.46-8.9-1.84-3.04-3.7-6.12-5.58-9.26-1.88-3.12-3.77-6.31-5.69-9.54-1.92-3.23-3.85-6.5-5.78-9.8-1.93-3.32-3.87-6.68-5.82-10.06-1.95-3.4-3.91-6.82-5.86-10.27-1.95-3.45-3.92-6.95-5.88-10.46-1.93-3.51-3.89-7.04-5.82-10.59-1.95-3.55-3.87-7.13-5.8-10.72-1.91-3.59-3.81-7.17-5.71-10.78-1.9-3.62-3.76-7.23-5.61-10.85-1.86-3.61-3.68-7.23-5.48-10.85-1.82-3.61-3.61-7.23-5.35-10.82-1.75-3.61-3.47-7.21-5.18-10.78-1.69-3.59-3.34-7.13-4.98-10.68-1.63-3.55-3.23-7.06-4.77-10.55-1.56-3.49-3.08-6.97-4.54-10.4-1.48-3.44-2.91-6.83-4.3-10.2-1.39-3.36-2.74-6.7-4.04-9.99-1.3-3.29-2.55-6.52-3.76-9.71-1.2-3.19-2.35-6.35-3.44-9.44-1.11-3.08-2.16-6.12-3.15-9.11-.99-2.99-1.93-5.9-2.82-8.77-.88-2.85-1.73-5.65-2.5-8.37-.77-2.74-1.48-5.41-2.14-8-.66-2.59-1.26-5.11-1.8-7.55-.54-2.46-1.03-4.83-1.45-7.12-.43-2.29-.79-4.51-1.09-6.63-.3-2.12-.54-4.17-.73-6.14-.17-1.95-.3-3.83-.36-5.63-.06-1.78-.06-3.47.02-5.09.06-1.6.17-3.12.36-4.54.19-1.43.43-2.76.73-3.98.3-1.24.68-2.38,1.09-3.42.41-1.05.9-1.99,1.45-2.84.53-.84,1.13-1.6,1.76-2.25.66-.66,1.37-1.2,2.12-1.65.77-.45,1.58-.81,2.46-1.05.86-.26,1.78-.41,2.76-.45.98-.06,1.99-.02,3.06.13,1.07.15,2.2.39,3.36.75,1.16.34,2.38.79,3.64,1.31,1.26.54,2.55,1.18,3.89,1.92,1.35.75,2.74,1.58,4.15,2.5,1.43.92,2.89,1.95,4.39,3.06,1.48,1.11,3.02,2.31,4.58,3.61,1.58,1.3,3.17,2.68,4.79,4.15,1.63,1.48,3.29,3.02,4.98,4.68,1.69,1.63,3.4,3.36,5.13,5.18"/>
  <path class="cls-2" d="M138.15,301.8c-3,.58-5.29.96-6.85,1.15-1.56.17-3.14.28-4.73.34s-3.23.06-4.86,0c-1.63-.06-3.29-.19-4.96-.36-1.67-.19-3.36-.41-5.05-.69-1.69-.3-3.38-.64-5.09-1.05-1.69-.39-3.4-.84-5.11-1.35-1.71-.51-3.42-1.07-5.13-1.69-1.71-.6-3.4-1.28-5.11-1.99-1.69-.69-3.38-1.46-5.05-2.27-1.67-.81-3.32-1.67-4.98-2.55-1.65-.9-3.27-1.84-4.88-2.84-1.61-.98-3.19-2.01-4.77-3.06-1.56-1.07-3.1-2.16-4.6-3.3-1.52-1.13-2.99-2.29-4.43-3.49-1.45-1.2-2.87-2.44-4.24-3.7-1.37-1.26-2.72-2.55-4.02-3.85-1.3-1.31-2.55-2.65-3.76-4.02-1.22-1.35-2.38-2.72-3.49-4.11-1.13-1.39-2.2-2.8-3.21-4.22-1.01-1.43-1.97-2.85-2.89-4.3-.9-1.43-1.75-2.87-2.53-4.34-.79-1.45-1.52-2.91-2.2-4.36-.68-1.46-1.28-2.91-1.82-4.37-.53-1.45-1.01-2.89-1.41-4.34-.41-1.43-.75-2.85-1.01-4.28-.26-1.41-.47-2.82-.58-4.21-.13-1.39-.17-2.74-.15-4.09.02-1.35.13-2.68.3-3.98.19-1.3.45-2.57.79-3.83.34-1.24.75-2.46,1.24-3.64.51-1.18,1.07-2.33,1.73-3.45.68-1.11,1.41-2.2,2.23-3.23.83-1.03,1.73-2.03,2.72-2.99.98-.96,2.05-1.86,3.21-2.72,1.15-.86,2.38-1.69,3.72-2.46"/>
  <path class="cls-3" d="M821.15,284.91c3.32-1.09,6.63-2.2,9.9-3.36,3.29-1.15,6.53-2.35,9.78-3.57,3.23-1.24,6.44-2.5,9.61-3.81,3.17-1.3,6.31-2.63,9.41-3.98,3.12-1.37,6.18-2.78,9.2-4.21,3.02-1.43,6.01-2.87,8.94-4.36,2.95-1.48,5.82-3,8.66-4.53,2.84-1.54,5.63-3.1,8.36-4.69,2.72-1.58,5.39-3.17,8-4.81,2.61-1.61,5.16-3.27,7.64-4.92,2.48-1.67,4.9-3.34,7.25-5.03"/>
  <path class="cls-3" d="M212.38,209.6c-.51-.56-1.07-1.11-1.71-1.61-.66-.53-1.35-1-2.14-1.45-.77-.43-1.61-.84-2.52-1.22-.9-.36-1.86-.69-2.89-1-1.03-.28-2.1-.54-3.25-.77-1.15-.21-2.35-.38-3.59-.53-1.26-.13-2.55-.23-3.91-.28-1.35-.04-2.74-.06-4.19-.02s-2.93.11-4.47.23c-1.52.13-3.1.3-4.69.51-1.61.21-3.25.47-4.92.77-1.67.3-3.36.64-5.11,1.03-1.73.38-3.47.81-5.26,1.3-1.76.49-3.57,1-5.39,1.58-1.8.56-3.64,1.18-5.48,1.84-1.84.66-3.68,1.35-5.54,2.1-1.86.75-3.72,1.54-5.58,2.37-1.88.83-3.74,1.71-5.6,2.63-1.86.92-3.7,1.88-5.56,2.87-1.84,1-3.66,2.05-5.48,3.12-1.82,1.09-3.6,2.2-5.39,3.36-1.78,1.15-3.55,2.35-5.28,3.57-1.73,1.24-3.44,2.5-5.11,3.81-1.67,1.3-3.3,2.63-4.9,3.98-1.61,1.37-3.17,2.78-4.69,4.21s-3,2.87-4.43,4.36c-1.45,1.48-2.82,3-4.15,4.53-1.33,1.54-2.63,3.1-3.85,4.69-1.22,1.58-2.38,3.17-3.49,4.81-1.11,1.61-2.16,3.27-3.14,4.92-.98,1.67-1.9,3.34-2.74,5.03-.84,1.69-1.61,3.38-2.33,5.11-.69,1.71-1.33,3.44-1.88,5.16-.56,1.73-1.03,3.45-1.43,5.2-.39,1.75-.71,3.49-.94,5.24-.24,1.75-.39,3.49-.45,5.24-.08,1.75-.06,3.47.06,5.22.11,1.73.3,3.45.6,5.18.28,1.73.66,3.44,1.13,5.13.47,1.71,1.03,3.38,1.67,5.05.66,1.67,1.41,3.32,2.23,4.96.84,1.63,1.78,3.25,2.8,4.84,1.03,1.6,2.16,3.17,3.38,4.71,1.2,1.54,2.52,3.06,3.92,4.54,1.41,1.5,2.91,2.97,4.51,4.39,1.6,1.43,3.29,2.82,5.07,4.19,1.78,1.35,3.66,2.68,5.63,3.98,1.95,1.28,4.02,2.53,6.18,3.76,2.14,1.2,4.39,2.37,6.72,3.49,2.33,1.15,4.75,2.22,7.27,3.27,2.5,1.03,5.09,2.03,7.77,2.97,2.68.96,5.44,1.84,8.28,2.68,2.85.86,5.76,1.65,8.77,2.4,3,.73,6.08,1.43,9.24,2.07,3.15.64,6.38,1.22,9.69,1.75,3.3.54,6.68,1.01,10.12,1.43,3.44.41,6.95.77,10.51,1.07,3.57.3,7.19.54,10.89.73,3.68.17,7.44.3,11.23.36s7.66.08,11.55,0c3.91-.06,7.85-.17,11.85-.36,3.98-.19,8.02-.43,12.09-.73,4.07-.3,8.19-.68,12.32-1.09,4.15-.43,8.32-.92,12.5-1.48,4.21-.54,8.43-1.16,12.67-1.84s8.51-1.41,12.79-2.2c4.28-.81,8.56-1.65,12.86-2.57s8.62-1.9,12.92-2.93c4.32-1.03,8.62-2.12,12.94-3.29,4.3-1.15,8.6-2.35,12.9-3.61,4.3-1.28,8.58-2.59,12.84-3.96,4.28-1.37,8.52-2.8,12.75-4.28,4.22-1.48,8.43-3,12.62-4.58,4.17-1.58,8.32-3.21,12.45-4.9,4.11-1.67,8.19-3.4,12.22-5.16,4.06-1.78,8.06-3.59,12-5.45,3.96-1.86,7.87-3.76,11.74-5.71,3.85-1.93,7.66-3.91,11.42-5.93,3.74-2.01,7.44-4.07,11.06-6.16,3.64-2.08,7.21-4.21,10.72-6.37,3.49-2.14,6.93-4.32,10.29-6.53,3.38-2.22,6.67-4.45,9.88-6.7,3.23-2.25,6.36-4.54,9.43-6.83,3.06-2.31,6.05-4.64,8.94-6.97,2.89-2.35,5.71-4.69,8.43-7.08,2.72-2.37,5.37-4.75,7.9-7.13,2.55-2.38,5.01-4.79,7.36-7.19,2.37-2.4,4.64-4.81,6.8-7.23,2.18-2.4,4.24-4.83,6.21-7.23,1.97-2.4,3.85-4.81,5.61-7.21,1.78-2.4,3.45-4.81,5.01-7.19,1.58-2.38,3.04-4.75,4.39-7.12,1.37-2.35,2.63-4.69,3.77-7.02,1.16-2.33,2.2-4.64,3.15-6.93.94-2.29,1.77-4.56,2.5-6.82.73-2.23,1.35-4.45,1.88-6.65.53-2.18.94-4.34,1.24-6.48.3-2.12.51-4.22.62-6.27.09-2.07.09-4.09-.02-6.08-.11-1.99-.32-3.92-.62-5.84-.32-1.92-.73-3.77-1.24-5.6s-1.13-3.59-1.82-5.31c-.71-1.73-1.52-3.42-2.4-5.05-.9-1.61-1.9-3.21-2.97-4.73-1.09-1.52-2.25-3-3.51-4.41-1.26-1.43-2.61-2.8-4.04-4.09-1.43-1.31-2.93-2.55-4.53-3.76-1.6-1.18-3.27-2.33-5.01-3.4-1.75-1.07-3.57-2.07-5.46-3.02-1.9-.96-3.85-1.84-5.88-2.67-2.03-.81-4.13-1.58-6.29-2.27-2.16-.69-4.37-1.31-6.65-1.88-2.27-.58-4.6-1.07-6.97-1.5-2.38-.43-4.81-.81-7.29-1.11-2.48-.3-4.99-.53-7.55-.69-2.57-.17-5.16-.28-7.79-.3-2.63-.04-5.29-.02-7.98.09-2.7.09-5.41.26-8.15.49-2.74.23-5.5.53-8.28.88s-5.56.79-8.36,1.28c-2.82.49-5.61,1.05-8.43,1.65-2.82.62-5.63,1.3-8.43,2.05-2.82.73-5.63,1.54-8.43,2.4-2.8.86-5.6,1.78-8.36,2.76-2.78,1-5.54,2.03-8.28,3.12s-5.46,2.25-8.15,3.45c-2.69,1.2-5.35,2.46-7.98,3.77-2.63,1.31-5.24,2.67-7.79,4.07-2.57,1.41-5.09,2.87-7.57,4.37-2.48,1.52-4.9,3.06-7.29,4.66-2.4,1.6-4.73,3.23-7.02,4.92-2.27,1.67-4.51,3.4-6.67,5.16-2.18,1.75-4.28,3.55-6.33,5.37-2.07,1.84-4.04,3.7-5.95,5.6-1.92,1.9-3.77,3.83-5.56,5.78-1.77,1.95-3.47,3.92-5.11,5.93-1.63,2.01-3.19,4.04-4.66,6.08-1.48,2.05-2.89,4.13-4.21,6.21-1.31,2.08-2.53,4.19-3.7,6.31-1.15,2.12-2.22,4.24-3.19,6.38-.98,2.14-1.86,4.3-2.67,6.46-.79,2.16-1.5,4.32-2.12,6.48-.62,2.18-1.15,4.34-1.58,6.5-.45,2.18-.79,4.34-1.03,6.5-.26,2.16-.41,4.32-.47,6.48-.06,2.14-.04,4.28.09,6.4.13,2.12.36,4.24.68,6.35.32,2.1.73,4.19,1.24,6.25.51,2.07,1.11,4.11,1.8,6.14.69,2.03,1.48,4.04,2.37,6.01.88,1.99,1.86,3.94,2.93,5.86,1.07,1.93,2.23,3.83,3.47,5.69,1.26,1.88,2.59,3.7,4.02,5.5,1.43,1.8,2.95,3.59,4.54,5.31,1.6,1.73,3.29,3.42,5.05,5.09,1.77,1.65,3.61,3.27,5.54,4.84,1.93,1.58,3.94,3.12,6.03,4.62,2.08,1.48,4.24,2.93,6.48,4.34,2.23,1.41,4.54,2.76,6.91,4.07,2.38,1.31,4.83,2.59,7.34,3.81,2.5,1.2,5.07,2.38,7.72,3.49,2.63,1.13,5.31,2.2,8.07,3.21,2.76,1.01,5.56,1.99,8.41,2.91,2.87.9,5.78,1.76,8.73,2.59,2.97.81,5.97,1.56,9.01,2.27,3.04.69,6.12,1.35,9.26,1.95,3.12.6,6.27,1.15,9.46,1.63,3.19.49,6.42.94,9.67,1.31,3.25.38,6.52.71,9.82,1,3.3.28,6.61.51,9.95.68,3.32.17,6.67.28,10.03.36,3.36.06,6.72.08,10.08.04,3.38-.04,6.76-.13,10.12-.26,3.38-.13,6.76-.32,10.12-.56,3.36-.23,6.72-.53,10.08-.84,3.34-.34,6.67-.71,9.99-1.15,3.32-.43,6.63-.9,9.91-1.41,3.27-.53,6.53-1.09,9.76-1.69,3.23-.6,6.44-1.24,9.61-1.92,3.17-.69,6.31-1.41,9.41-2.18,3.12-.75,6.18-1.56,9.2-2.38,3.04-.84,6.03-1.71,8.96-2.61,2.95-.9,5.84-1.84,8.69-2.8,2.84-.98,5.63-1.95,8.37-2.99,2.74-1.01,5.45-2.07,8.07-3.15,2.63-1.07,5.22-2.16,7.74-3.29s4.98-2.27,7.36-3.44c2.4-1.16,4.73-2.35,6.98-3.53,2.27-1.2,4.47-2.42,6.61-3.64,2.12-1.22,4.19-2.46,6.18-3.72,2.01-1.26,3.92-2.52,5.78-3.77,1.84-1.28,3.62-2.53,5.33-3.83,1.71-1.28,3.34-2.55,4.88-3.83,1.56-1.3,3.04-2.57,4.45-3.85,1.41-1.3,2.74-2.57,4-3.85,1.26-1.28,2.42-2.53,3.53-3.79,1.11-1.28,2.12-2.53,3.08-3.77.96-1.24,1.82-2.48,2.63-3.7.79-1.22,1.52-2.42,2.16-3.61.66-1.2,1.22-2.37,1.73-3.53.49-1.16.92-2.29,1.28-3.42.36-1.11.64-2.22.84-3.29.21-1.07.34-2.12.41-3.14.07-1.03.07-2.03.02-3-.06-.96-.19-1.92-.39-2.82-.19-.92-.43-1.8-.75-2.67-.32-.84-.69-1.67-1.13-2.46s-.92-1.54-1.46-2.25c-.54-.73-1.15-1.41-1.8-2.07-.64-.66-1.33-1.28-2.08-1.84-.75-.58-1.54-1.13-2.37-1.63-.84-.51-1.71-.98-2.63-1.41s-1.86-.81-2.85-1.16c-.98-.36-1.99-.68-3.04-.94-1.05-.28-2.12-.51-3.23-.71-1.09-.19-2.22-.34-3.36-.45-1.15-.13-2.31-.21-3.49-.24-1.16-.04-2.37-.04-3.57.02-1.2.04-2.4.11-3.62.23s-2.44.28-3.66.47c-1.22.19-2.44.41-3.66.69-1.22.26-2.42.56-3.62.9-1.2.34-2.38.71-3.57,1.13-1.16.41-2.33.84-3.47,1.31-1.13.49-2.25,1-3.34,1.52-1.09.54-2.16,1.11-3.21,1.71-1.03.6-2.05,1.22-3.02,1.88-.98.66-1.91,1.35-2.82,2.05-.92.71-1.78,1.45-2.59,2.2-.83.77-1.61,1.54-2.35,2.35-.73.79-1.43,1.61-2.05,2.46-.64.83-1.22,1.69-1.76,2.57-.53.86-1.01,1.76-1.43,2.67-.41.9-.79,1.82-1.09,2.74-.3.92-.54,1.86-.71,2.82-.19.94-.3,1.9-.34,2.85-.06.96-.04,1.93.06,2.89.09.98.24,1.95.47,2.91.23.98.53,1.95.9,2.91.36.98.81,1.93,1.31,2.89.53.96,1.11,1.92,1.78,2.85.66.94,1.39,1.88,2.22,2.8.81.94,1.69,1.84,2.67,2.74.96.9,2.01,1.78,3.14,2.65,1.11.86,2.31,1.73,3.57,2.55,1.28.83,2.63,1.63,4.06,2.42,1.41.81,2.91,1.56,4.49,2.31,1.58.75,3.21,1.46,4.94,2.16,1.71.69,3.51,1.35,5.37,1.99,1.88.64,3.81,1.24,5.82,1.82,2.01.56,4.07,1.11,6.21,1.61,2.16.53,4.36,1,6.65,1.45,2.27.43,4.62.84,7.02,1.22,2.4.36,4.86.69,7.4,1,2.53.28,5.11.54,7.75.77,2.65.21,5.35.38,8.09.53,2.76.13,5.56.23,8.41.28,2.85.04,5.75.06,8.69.02,2.95-.04,5.93-.11,8.97-.23,3.02-.13,6.1-.3,9.2-.51,3.12-.21,6.25-.47,9.43-.77,3.17-.3,6.37-.64,9.61-1.03,3.23-.38,6.48-.81,9.76-1.3,3.27-.49,6.57-1,9.9-1.58,3.3-.56,6.65-1.18,9.99-1.84,3.34-.66,6.68-1.35,10.05-2.1,3.36-.75,6.72-1.54,10.08-2.37,3.38-.83,6.74-1.71,10.1-2.63,3.36-.92,6.7-1.88,10.06-2.87,3.34-1,6.67-2.05,9.99-3.12"/>
  <path class="cls-2" d="M647.69,253.85c2.29-1.3,4.62-2.52,7-3.7s4.83-2.33,7.3-3.4c2.48-1.09,5.01-2.12,7.57-3.1,2.57-.98,5.2-1.9,7.85-2.78,2.67-.86,5.35-1.67,8.09-2.44,2.74-.75,5.52-1.45,8.34-2.1,2.82-.64,5.67-1.22,8.56-1.75"/>
  <path class="cls-2" d="M519.73,218.13c1.65,3.25,3.27,6.5,4.86,9.74,1.6,3.27,3.15,6.52,4.69,9.74,1.54,3.25,3.04,6.48,4.52,9.71,1.46,3.23,2.91,6.44,4.32,9.63s2.8,6.37,4.13,9.5c1.33,3.15,2.65,6.29,3.92,9.39"/>
  <path class="cls-2" d="M432.22,86.74c1.73,1.8,3.49,3.68,5.26,5.65,1.78,1.97,3.57,4.02,5.39,6.12,1.8,2.12,3.64,4.32,5.48,6.57,1.84,2.25,3.7,4.58,5.56,6.98,1.86,2.38,3.74,4.84,5.63,7.38,1.88,2.52,3.76,5.09,5.65,7.74,1.9,2.63,3.79,5.33,5.67,8.07,1.9,2.74,3.79,5.54,5.69,8.39,1.9,2.84,3.77,5.73,5.65,8.66,1.9,2.93,3.76,5.91,5.63,8.92,1.86,3,3.72,6.05,5.56,9.13,1.84,3.08,3.68,6.18,5.48,9.31,1.82,3.14,3.62,6.29,5.39,9.48,1.78,3.17,3.55,6.37,5.29,9.58,1.75,3.23,3.45,6.44,5.16,9.69,1.69,3.23,3.36,6.48,5.01,9.73"/>
  <path class="cls-2" d="M47.18,198.14c1.31-.77,2.72-1.48,4.21-2.14,1.5-.66,3.06-1.28,4.73-1.84,1.65-.54,3.38-1.05,5.2-1.48,1.82-.45,3.72-.83,5.71-1.16,1.99-.32,4.06-.58,6.2-.79,2.14-.19,4.36-.34,6.67-.41,2.29-.08,4.68-.09,7.13-.04s4.98.17,7.59.36c2.61.17,5.28.41,8.04.73,2.74.32,5.58.69,8.47,1.15,2.89.45,5.84.98,8.86,1.56,3.04.58,6.12,1.24,9.28,1.95s6.38,1.5,9.65,2.37c3.29.84,6.61,1.76,10.01,2.76,3.4.98,6.83,2.03,10.35,3.15,3.49,1.13,7.04,2.31,10.65,3.55,3.6,1.26,7.25,2.57,10.95,3.94,3.68,1.37,7.42,2.82,11.21,4.32,3.77,1.5,7.59,3.06,11.43,4.68,3.85,1.61,7.74,3.3,11.66,5.03,3.92,1.73,7.87,3.53,11.85,5.37,3.98,1.84,7.98,3.74,12,5.69,4.02,1.95,8.07,3.96,12.13,6.01,4.07,2.05,8.15,4.15,12.24,6.29,4.09,2.14,8.19,4.32,12.3,6.55,4.11,2.22,8.22,4.49,12.34,6.8,4.13,2.29,8.24,4.64,12.35,7,4.13,2.38,8.24,4.79,12.34,7.23,4.11,2.44,8.21,4.9,12.3,7.4,4.07,2.48,8.15,4.99,12.2,7.53,4.06,2.53,8.09,5.09,12.11,7.66,4.02,2.57,8,5.14,11.96,7.75,3.96,2.59,7.9,5.2,11.81,7.81,3.91,2.61,7.77,5.24,11.6,7.85,3.83,2.63,7.62,5.24,11.4,7.87,3.76,2.61,7.45,5.22,11.13,7.83,3.66,2.59,7.29,5.2,10.87,7.77,3.57,2.59,7.1,5.14,10.57,7.7,3.47,2.55,6.89,5.07,10.25,7.59,3.34,2.5,6.65,4.98,9.9,7.44,3.25,2.46,6.42,4.88,9.54,7.27"/>
  <path class="cls-3" d="M34.79,277.07c5.2.39,9.13.64,11.77.75,2.65.13,5.31.21,8,.24,2.67.04,5.37.04,8.07-.02,2.7-.04,5.41-.11,8.13-.23s5.45-.28,8.17-.47c2.72-.19,5.44-.41,8.17-.69,2.72-.26,5.43-.56,8.13-.9,2.7-.34,5.39-.71,8.07-1.13,2.67-.41,5.33-.84,7.98-1.31,2.63-.49,5.26-1,7.85-1.52,2.59-.54,5.16-1.11,7.72-1.71,2.53-.6,5.05-1.22,7.53-1.88,2.48-.66,4.92-1.35,7.32-2.05,2.42-.71,4.79-1.45,7.1-2.2,2.33-.77,4.62-1.54,6.85-2.35,2.23-.79,4.41-1.61,6.55-2.46,2.14-.83,4.22-1.69,6.27-2.57,2.03-.86,4.02-1.76,5.93-2.67,1.92-.9,3.79-1.82,5.6-2.74,1.8-.92,3.55-1.86,5.22-2.82,1.69-.94,3.3-1.9,4.84-2.85,1.56-.96,3.04-1.93,4.45-2.89,1.41-.98,2.76-1.95,4.04-2.91,1.28-.98,2.48-1.95,3.61-2.91,1.15-.98,2.2-1.93,3.19-2.89.98-.96,1.9-1.92,2.72-2.85.84-.94,1.61-1.88,2.29-2.8.69-.94,1.31-1.84,1.84-2.74.54-.9,1-1.78,1.37-2.65.39-.86.69-1.73.94-2.55.23-.83.38-1.63.45-2.42.09-.81.09-1.56.02-2.31-.08-.75-.21-1.46-.43-2.16-.21-.69-.51-1.35-.86-1.99-.38-.64-.81-1.24-1.31-1.82"/>
  <path class="cls-2" d="M546.19,275.85c1.26,3.1,2.5,6.18,3.7,9.22,1.18,3.04,2.35,6.05,3.47,9.01,1.11,2.97,2.2,5.9,3.25,8.79,1.03,2.89,2.05,5.75,3,8.54.98,2.8,1.9,5.56,2.78,8.26.88,2.7,1.75,5.35,2.55,7.96.81,2.59,1.58,5.14,2.31,7.62.73,2.5,1.41,4.92,2.07,7.29.66,2.37,1.28,4.68,1.84,6.91.58,2.25,1.13,4.41,1.61,6.53.51,2.1.98,4.15,1.41,6.1.41,1.97.81,3.89,1.16,5.71.36,1.82.69,3.59.98,5.26.28,1.67.54,3.29.77,4.81.23,1.54.41,2.99.58,4.36.17,1.37.3,2.67.41,3.89.09,1.22.19,2.37.23,3.42.06,1.05.09,2.05.09,2.93s-.02,1.73-.06,2.46c-.04.73-.09,1.39-.17,1.97-.07.58-.17,1.07-.28,1.48-.11.43-.24.75-.38,1.01-.13.26-.28.43-.45.54"/>
</svg>