<?xml version="1.0" encoding="UTF-8"?>
<svg id="Layer_3" data-name="Layer 3" xmlns="http://www.w3.org/2000/svg" xmlns:xlink="http://www.w3.org/1999/xlink" viewBox="0 0 1000 500">
  <defs>
    <style>
      .cls-1, .cls-2, .cls-3 {
        fill: none;
      }

      .cls-2 {
        stroke: #ff2a17;
      }

      .cls-2, .cls-3 {
        stroke-miterlimit: 10;
        stroke-width: 8px;
      }

      .cls-3 {
        stroke: #78b0ff;
      }

      .cls-4 {
        clip-path: url(#clippath);
      }
    </style>
    <clipPath id="clippath">
      <rect class="cls-1" x="1130" y="-74" width="512" height="512"/>
    </clipPath>
  </defs>
  <g class="cls-4">
    <image width="3840" height="2880" transform="translate(971.33 -1121.41) scale(.72)" xlink:href="../animare_stroke_tex (00000).png"/>
  </g>
  <g>
    <path class="cls-2" d="M269.1,196.81c-.1-.14-.24-.24-.4-.29-.17-.06-.38-.07-.61-.03-.24.03-.5.11-.81.24-.31.13-.64.29-1.01.51-.36.22-.76.47-1.19.79-.43.31-.88.65-1.36,1.06-.49.4-1,.85-1.54,1.35-.54.49-1.1,1.03-1.69,1.61-.58.58-1.19,1.22-1.82,1.9-.64.67-1.29,1.39-1.96,2.17-.68.76-1.36,1.57-2.07,2.43-.71.86-1.43,1.76-2.17,2.71-.74.94-1.49,1.93-2.25,2.96-.76,1.03-1.54,2.1-2.32,3.21-.78,1.11-1.57,2.26-2.36,3.44-.79,1.19-1.58,2.42-2.39,3.69-.81,1.26-1.6,2.56-2.4,3.9-.81,1.33-1.61,2.71-2.4,4.11s-1.58,2.85-2.38,4.31c-.79,1.47-1.57,2.97-2.33,4.5-.76,1.53-1.53,3.08-2.26,4.67-.75,1.58-1.49,3.18-2.19,4.81-.72,1.64-1.42,3.28-2.1,4.96-.68,1.67-1.33,3.36-1.97,5.07-.64,1.71-1.25,3.43-1.85,5.17-.58,1.74-1.15,3.49-1.68,5.25-.54,1.76-1.04,3.54-1.53,5.32-.47,1.78-.92,3.57-1.32,5.36-.42,1.79-.79,3.58-1.14,5.39-.33,1.79-.64,3.6-.9,5.39-.26,1.79-.49,3.58-.67,5.38-.18,1.78-.32,3.56-.42,5.33-.1,1.76-.15,3.53-.15,5.28-.01,1.75.03,3.49.13,5.19.08,1.72.22,3.43.4,5.11.19,1.68.43,3.33.71,4.99.29,1.64.64,3.25,1.03,4.83.39,1.6.85,3.15,1.35,4.69"/>
    <path class="cls-2" d="M644.79,286.41c.46.82.94,1.6,1.49,2.38.53.76,1.1,1.5,1.71,2.21.6.71,1.24,1.4,1.92,2.06.68.65,1.4,1.28,2.17,1.86.75.6,1.54,1.15,2.38,1.68.83.53,1.71,1.01,2.61,1.47.92.46,1.86.88,2.85,1.26.97.38,2,.72,3.06,1.03,1.07.29,2.17.56,3.29.78,1.14.22,2.31.4,3.51.54s2.46.24,3.74.29c1.28.06,2.6.07,3.94.03,1.35-.03,2.72-.11,4.14-.24s2.86-.29,4.35-.51c1.47-.22,2.99-.47,4.53-.79,1.54-.31,3.1-.65,4.69-1.06,1.6-.4,3.22-.85,4.88-1.35,1.65-.49,3.32-1.03,5.03-1.61,1.69-.58,3.42-1.22,5.15-1.9,1.75-.67,3.51-1.39,5.29-2.17,1.79-.76,3.58-1.57,5.4-2.43,1.82-.86,3.65-1.76,5.5-2.71,1.85-.94,3.71-1.93,5.58-2.96,1.88-1.03,3.76-2.1,5.65-3.21,1.89-1.11,3.79-2.26,5.69-3.44,1.9-1.19,3.81-2.42,5.72-3.69,1.92-1.26,3.82-2.56,5.74-3.9,1.92-1.33,3.83-2.71,5.74-4.11s3.81-2.85,5.71-4.31c1.9-1.47,3.79-2.97,5.67-4.5,1.88-1.53,3.75-3.08,5.6-4.67,1.86-1.58,3.71-3.18,5.53-4.81,1.83-1.64,3.64-3.28,5.43-4.96,1.79-1.67,3.56-3.36,5.31-5.07,1.75-1.71,3.47-3.43,5.18-5.17,1.69-1.74,3.38-3.49,5.01-5.25,1.65-1.76,3.26-3.54,4.86-5.32,1.58-1.78,3.14-3.57,4.65-5.36,1.53-1.79,3.01-3.58,4.47-5.39,1.44-1.79,2.86-3.6,4.24-5.39,1.38-1.79,2.71-3.58,4-5.38,1.29-1.78,2.54-3.56,3.75-5.33,1.21-1.76,2.38-3.53,3.49-5.28,1.13-1.75,2.19-3.49,3.21-5.19,1.03-1.72,2-3.43,2.93-5.11.92-1.68,1.79-3.33,2.63-4.99.82-1.64,1.58-3.25,2.31-4.83.72-1.6,1.38-3.15,1.99-4.69.61-1.53,1.17-3.03,1.67-4.5s.94-2.92,1.33-4.32c.39-1.4.72-2.76,1-4.08.28-1.33.49-2.63.65-3.88.15-1.24.26-2.44.31-3.61.04-1.15.03-2.26-.04-3.33-.08-1.07-.21-2.1-.4-3.07-.18-.97-.43-1.9-.74-2.76-.31-.88-.67-1.69-1.08-2.46-.42-.78-.89-1.49-1.42-2.14-.54-.65-1.13-1.26-1.76-1.81-.64-.54-1.35-1.03-2.1-1.46-.75-.43-1.56-.79-2.42-1.11-.85-.31-1.76-.56-2.72-.74-.96-.19-1.97-.32-3.03-.38-1.07-.07-2.18-.07-3.33-.01-1.15.07-2.36.19-3.6.38-1.25.19-2.54.44-3.88.75-1.33.32-2.71.69-4.13,1.14-1.42.44-2.88.94-4.36,1.51-1.5.57-3.03,1.19-4.58,1.89-1.57.69-3.17,1.46-4.79,2.28s-3.28,1.69-4.97,2.64c-1.68.94-3.39,1.96-5.13,3.01-1.74,1.07-3.5,2.19-5.28,3.38-1.79,1.18-3.58,2.43-5.4,3.72-1.82,1.31-3.67,2.67-5.51,4.07-1.85,1.42-3.71,2.89-5.58,4.4-1.88,1.53-3.75,3.1-5.64,4.72-1.89,1.63-3.79,3.31-5.68,5.03-1.9,1.74-3.79,3.51-5.69,5.33s-3.79,3.69-5.68,5.6c-1.89,1.92-3.78,3.88-5.64,5.88-1.88,1.99-3.75,4.03-5.6,6.11-1.85,2.07-3.68,4.18-5.5,6.33-1.82,2.14-3.63,4.33-5.4,6.54-1.79,2.21-3.54,4.46-5.28,6.74-1.74,2.26-3.44,4.57-5.13,6.89-1.68,2.33-3.33,4.68-4.94,7.06"/>
    <path class="cls-2" d="M596.93,266.29c1.65-1.25,3.26-2.49,4.85-3.72,1.57-1.22,3.11-2.43,4.6-3.63,1.5-1.18,2.96-2.36,4.38-3.51,1.42-1.14,2.81-2.26,4.14-3.38,1.33-1.1,2.63-2.18,3.88-3.24,1.26-1.06,2.47-2.08,3.64-3.08,1.17-1,2.29-1.97,3.38-2.9,1.1-.94,2.14-1.86,3.13-2.74,1-.87,1.96-1.72,2.88-2.53.92-.82,1.79-1.6,2.63-2.33.83-.75,1.61-1.46,2.36-2.13s1.46-1.31,2.13-1.9c.67-.6,1.29-1.15,1.88-1.67.58-.53,1.14-1,1.64-1.44.51-.44.99-.85,1.42-1.21.43-.36.83-.68,1.19-.96.36-.29.68-.53.97-.72.29-.21.54-.36.78-.49.22-.13.42-.19.57-.24.17-.04.31-.04.4,0"/>
    <path class="cls-2" d="M497.56,133.56c-2.06,1.44-4.13,2.94-6.19,4.5-2.07,1.56-4.14,3.15-6.21,4.79-2.07,1.64-4.14,3.33-6.21,5.06-2.07,1.74-4.14,3.5-6.19,5.31-2.04,1.82-4.1,3.67-6.13,5.54-2.03,1.89-4.06,3.81-6.06,5.75-2.01,1.96-4,3.94-5.96,5.94-1.97,2.01-3.92,4.06-5.85,6.11-1.93,2.07-3.82,4.15-5.69,6.26-1.88,2.11-3.72,4.25-5.54,6.39-1.81,2.15-3.6,4.32-5.35,6.5-1.75,2.18-3.46,4.38-5.14,6.58-1.68,2.19-3.32,4.42-4.92,6.63-1.6,2.22-3.15,4.46-4.67,6.68-1.51,2.24-2.99,4.46-4.42,6.69-1.42,2.22-2.79,4.46-4.13,6.68-1.33,2.22-2.61,4.44-3.85,6.65-1.22,2.21-2.4,4.4-3.53,6.6-1.13,2.19-2.19,4.38-3.21,6.53-1.01,2.17-1.97,4.31-2.88,6.43-.9,2.14-1.74,4.24-2.53,6.32-.78,2.1-1.51,4.15-2.18,6.19-.65,2.03-1.26,4.04-1.81,6.03-.54,1.99-1.03,3.93-1.44,5.86-.42,1.92-.78,3.81-1.07,5.67-.29,1.85-.53,3.67-.69,5.46-.17,1.78-.26,3.53-.31,5.22-.04,1.71-.01,3.38.07,5,.1,1.63.25,3.21.46,4.74.22,1.54.5,3.03.85,4.49.35,1.44.75,2.83,1.22,4.19.47,1.35,1,2.65,1.6,3.9.6,1.25,1.25,2.46,1.97,3.61.71,1.15,1.49,2.25,2.33,3.29.83,1.06,1.74,2.06,2.68,2.99.96.94,1.97,1.83,3.04,2.67,1.07.85,2.19,1.63,3.38,2.35,1.18.72,2.42,1.4,3.71,2.01,1.28.61,2.63,1.18,4.01,1.68,1.39.51,2.83.96,4.32,1.35,1.49.4,3.01.74,4.6,1.03,1.58.29,3.21.51,4.88.69,1.68.18,3.39.29,5.14.36,1.75.07,3.54.08,5.38.06,1.82-.04,3.69-.14,5.58-.28,1.9-.14,3.83-.33,5.81-.57,1.96-.25,3.96-.54,5.99-.89,2.01-.35,4.07-.74,6.14-1.17,2.08-.44,4.18-.93,6.31-1.46s4.26-1.11,6.43-1.72c2.15-.63,4.33-1.28,6.53-1.99,2.19-.71,4.4-1.44,6.63-2.24,2.21-.78,4.44-1.6,6.68-2.46,2.24-.86,4.49-1.75,6.74-2.68,2.25-.93,4.5-1.89,6.76-2.89,2.25-.99,4.51-2.01,6.76-3.07,2.26-1.04,4.51-2.13,6.76-3.24,2.25-1.11,4.49-2.24,6.72-3.39,2.24-1.15,4.47-2.33,6.68-3.53,2.22-1.19,4.42-2.42,6.61-3.65,2.19-1.22,4.36-2.47,6.51-3.74,2.17-1.26,4.31-2.54,6.43-3.82,2.11-1.29,4.21-2.58,6.29-3.89"/>
    <path class="cls-2" d="M401.68,334.31c3.01-1.74,6.01-3.51,9.03-5.33,3.01-1.82,6.01-3.69,9.01-5.6,3-1.92,6-3.88,8.97-5.88,2.99-1.99,5.97-4.03,8.93-6.11,2.96-2.07,5.9-4.18,8.83-6.33,2.93-2.14,5.85-4.33,8.74-6.54,2.9-2.21,5.76-4.46,8.61-6.74"/>
    <path class="cls-3" d="M525.78,360.09c-1.29-.08-2.53-.23-3.78-.41-1.22-.2-2.45-.45-3.62-.75-1.2-.31-2.36-.65-3.47-1.08-1.13-.41-2.23-.85-3.28-1.38-1.05-.51-2.08-1.07-3.06-1.68-.96-.61-1.91-1.25-2.79-1.96-.9-.71-1.74-1.45-2.53-2.26-.77-.78-1.53-1.61-2.19-2.49-.69-.86-1.32-1.79-1.9-2.75-.56-.94-1.06-1.92-1.52-2.96-.44-1.02-.83-2.08-1.15-3.17-.31-1.08-.56-2.21-.75-3.35-.19-1.15-.29-2.35-.34-3.54-.04-1.21,0-2.44.1-3.69.12-1.25.31-2.53.56-3.82.27-1.3.62-2.6,1.03-3.94.43-1.32.93-2.66,1.5-4.01.6-1.35,1.26-2.73,2-4.1.76-1.37,1.59-2.76,2.51-4.14.91-1.38,1.92-2.79,3.01-4.19,1.09-1.38,2.26-2.78,3.52-4.17,1.26-1.39,2.61-2.78,4.05-4.17,1.42-1.39,2.94-2.77,4.54-4.16,1.62-1.36,3.31-2.74,5.1-4.1,1.77-1.36,3.64-2.69,5.59-4.02,1.95-1.33,3.98-2.64,6.1-3.94,2.13-1.3,4.33-2.56,6.62-3.82,2.28-1.26,4.65-2.49,7.09-3.72,2.46-1.21,4.98-2.4,7.58-3.57,2.62-1.16,5.3-2.31,8.07-3.41,2.76-1.12,5.59-2.2,8.51-3.25,2.9-1.05,5.89-2.06,8.94-3.05,3.05-.99,6.17-1.95,9.36-2.87,3.19-.9,6.46-1.8,9.76-2.63,3.33-.85,6.7-1.67,10.15-2.44,3.45-.77,6.94-1.49,10.49-2.18,3.57-.7,7.16-1.34,10.83-1.96,3.65-.6,7.36-1.17,11.11-1.71,3.77-.51,7.56-1,11.4-1.43,3.83-.45,7.72-.83,11.62-1.2,3.91-.34,7.85-.67,11.84-.92,3.99-.26,7.99-.48,12.01-.65,4.04-.18,8.11-.31,12.17-.38,4.08-.09,8.18-.14,12.28-.13,4.12.01,8.24.06,12.36.14,4.14.09,8.27.25,12.41.43,4.14.18,8.27.39,12.42.67,4.13.26,8.26.58,12.37.92,4.13.36,8.24.74,12.32,1.18,4.11.42,8.17.9,12.23,1.41,4.06.52,8.1,1.06,12.1,1.65,4,.6,7.98,1.22,11.93,1.89,3.96.66,7.85,1.34,11.72,2.09,3.89.72,7.72,1.48,11.51,2.28,3.79.8,7.53,1.62,11.22,2.48,3.7.84,7.34,1.74,10.92,2.63,3.6.92,7.11,1.85,10.59,2.81,3.47.95,6.89,1.95,10.24,2.96,3.33.99,6.62,2.02,9.82,3.07s6.35,2.09,9.41,3.18c3.06,1.08,6.06,2.17,8.95,3.29,2.92,1.1,5.75,2.22,8.5,3.35,2.73,1.11,5.4,2.27,7.99,3.4,2.57,1.15,5.05,2.3,7.45,3.44,2.4,1.17,4.72,2.33,6.94,3.47,2.22,1.16,4.33,2.32,6.37,3.47,2.01,1.15,3.94,2.3,5.79,3.45,1.83,1.15,3.55,2.27,5.2,3.41,1.62,1.12,3.17,2.24,4.59,3.33,1.44,1.11,2.76,2.2,3.99,3.27,1.22,1.09,2.35,2.15,3.36,3.19,1.01,1.04,1.92,2.05,2.73,3.04.81,1.01,1.51,1.98,2.1,2.92.6.96,1.09,1.88,1.47,2.77.38.89.66,1.76.84,2.61.18.83.25,1.65.21,2.41-.05.78-.17,1.51-.42,2.22-.25.71-.58,1.38-1.03,2-.45.64-1,1.22-1.66,1.77-.65.55-1.39,1.06-2.24,1.53-.84.49-1.77.91-2.81,1.28s-2.18.71-3.39,1c-1.22.31-2.54.53-3.94.73-1.4.2-2.9.36-4.46.45-1.58.09-3.24.16-4.99.14-1.74,0-3.57-.03-5.45-.14-1.9-.1-3.89-.25-5.93-.46-2.04-.21-4.17-.46-6.35-.76-2.18-.32-4.43-.66-6.75-1.08-2.3-.4-4.69-.87-7.11-1.38-2.44-.51-4.93-1.08-7.47-1.7s-6.46-1.67-11.75-3.11"/>
    <path class="cls-3" d="M26.99,187.39c3.38.05,6.84.14,10.36.3,3.54.16,7.16.36,10.85.62,3.68.26,7.44.57,11.27.92,3.82.37,7.7.76,11.67,1.24,3.94.46,7.96.98,12.02,1.54,4.08.56,8.2,1.19,12.38,1.86,4.18.67,8.42,1.4,12.7,2.18,4.28.78,8.6,1.61,12.96,2.49,4.36.86,8.78,1.8,13.21,2.79,4.44.97,8.91,1.99,13.41,3.08,4.5,1.07,9.03,2.2,13.58,3.38s9.13,2.39,13.7,3.67c4.59,1.28,9.2,2.58,13.81,3.94,4.63,1.36,9.24,2.76,13.89,4.21,4.63,1.44,9.25,2.95,13.88,4.47,4.62,1.53,9.25,3.09,13.87,4.7,4.62,1.61,9.22,3.23,13.82,4.92,4.6,1.69,9.18,3.4,13.73,5.14,4.56,1.75,9.09,3.52,13.58,5.32,4.51,1.81,8.98,3.66,13.43,5.5,4.45,1.87,8.86,3.75,13.22,5.68,4.39,1.91,8.71,3.85,12.99,5.8,4.3,1.97,8.54,3.95,12.72,5.93,4.2,2,8.34,4,12.43,6.02,4.07,2.04,8.11,4.06,12.08,6.12,3.97,2.04,7.88,4.09,11.71,6.16,3.85,2.05,7.61,4.12,11.32,6.19s7.35,4.14,10.91,6.22c3.56,2.06,7.04,4.13,10.44,6.21,3.42,2.06,6.73,4.12,9.99,6.17,3.23,2.03,6.41,4.08,9.48,6.11,3.07,2.03,6.06,4.03,8.95,6.03,2.91,1.98,5.71,3.96,8.44,5.91,2.7,1.97,5.33,3.91,7.87,5.81,2.52,1.91,4.96,3.79,7.3,5.65,2.34,1.86,4.57,3.7,6.71,5.49,2.13,1.81,4.19,3.56,6.12,5.31,1.95,1.72,3.78,3.42,5.51,5.08,1.75,1.66,3.38,3.27,4.93,4.84,1.53,1.59,2.97,3.11,4.3,4.61,1.33,1.48,2.55,2.91,3.67,4.3,1.14,1.41,2.17,2.74,3.09,4.04.92,1.3,1.74,2.54,2.44,3.71.72,1.19,1.34,2.32,1.86,3.4.52,1.08.94,2.08,1.25,3.05.32.95.53,1.84.65,2.69.12.84.15,1.62.07,2.32-.06.72-.23,1.37-.47,1.95-.27.59-.61,1.11-1.06,1.54-.45.46-.97.85-1.58,1.16-.62.31-1.33.57-2.11.73-.78.18-1.65.29-2.59.33-.94.05-1.97.02-3.07-.08-1.1-.12-2.27-.28-3.53-.53-1.24-.25-2.57-.56-3.95-.95-1.38-.39-2.82-.85-4.34-1.37-1.52-.52-3.1-1.13-4.72-1.79-1.64-.69-3.32-1.42-5.07-2.24-1.74-.82-3.53-1.69-5.37-2.64-1.83-.96-3.73-1.97-5.64-3.08-1.93-1.09-3.9-2.24-5.91-3.45-2.01-1.23-4.04-2.51-6.11-3.87-2.07-1.36-4.17-2.78-6.3-4.27-2.12-1.48-4.29-3.03-6.45-4.64-2.16-1.59-4.36-3.26-6.56-4.99-2.2-1.73-4.42-3.51-6.63-5.36-2.24-1.84-4.45-3.73-6.7-5.67-2.23-1.96-4.46-3.96-6.69-6.02-2.23-2.04-4.46-4.14-6.66-6.31-2.23-2.14-4.43-4.35-6.63-6.59-2.18-2.24-4.36-4.53-6.52-6.86-2.16-2.33-4.3-4.69-6.41-7.1-2.12-2.41-4.19-4.85-6.26-7.32-2.05-2.49-4.06-4.99-6.07-7.52-1.99-2.55-3.93-5.11-5.84-7.69-1.92-2.58-3.79-5.21-5.63-7.85-1.82-2.62-3.6-5.28-5.34-7.97-1.74-2.68-3.41-5.36-5.05-8.06-1.61-2.72-3.2-5.44-4.72-8.15-1.51-2.74-2.98-5.45-4.36-8.2-1.41-2.73-2.75-5.46-4.02-8.21-1.26-2.75-2.49-5.47-3.63-8.22-1.14-2.72-2.2-5.46-3.2-8.18-1.02-2.72-1.93-5.41-2.81-8.13-.85-2.69-1.63-5.36-2.34-8.03-.71-2.67-1.34-5.31-1.91-7.94-.55-2.62-1.04-5.22-1.43-7.8-.41-2.58-.73-5.13-.98-7.64-.25-2.53-.41-5.02-.49-7.46-.08-2.46-.09-4.88,0-7.26s.24-4.71.48-7.02c.24-2.29.56-4.55.96-6.75.4-2.22.88-4.38,1.44-6.49.56-2.11,1.22-4.18,1.95-6.19.72-2.03,1.52-3.99,2.41-5.89.88-1.9,1.82-3.75,2.87-5.54,1.04-1.79,2.14-3.52,3.35-5.18,1.18-1.68,2.44-3.28,3.79-4.84,1.34-1.53,2.74-3.03,4.22-4.43,1.48-1.41,3.02-2.77,4.64-4.05,1.62-1.28,3.32-2.47,5.06-3.63,1.76-1.13,3.58-2.22,5.46-3.2,1.88-1,3.81-1.93,5.81-2.78,2-.86,4.05-1.65,6.17-2.36,2.11-.71,4.29-1.34,6.5-1.9,2.21-.56,4.48-1.04,6.79-1.46,2.31-.4,4.68-.73,7.09-1,2.39-.25,4.83-.44,7.32-.54,2.48-.1,5.01-.14,7.57-.1,2.54.06,5.14.17,7.76.38,2.62.19,5.25.46,7.93.79,2.65.35,5.35.77,8.06,1.27,2.71.5,5.44,1.06,8.19,1.7,2.75.62,5.51,1.35,8.27,2.12,2.76.79,5.54,1.64,8.32,2.55,2.78.93,5.57,1.93,8.35,2.98,2.79,1.06,5.57,2.17,8.36,3.37,2.77,1.18,5.54,2.44,8.3,3.76,2.77,1.3,5.51,2.68,8.25,4.12,2.74,1.44,5.46,2.93,8.16,4.49,2.7,1.54,5.37,3.17,8.04,4.84,2.65,1.67,5.28,3.37,7.87,5.14,2.61,1.79,5.17,3.59,7.71,5.46,2.54,1.89,5.04,3.79,7.52,5.76,2.46,1.95,4.89,3.95,7.29,6,2.37,2.05,4.72,4.13,7.03,6.26,2.29,2.13,4.55,4.29,6.76,6.47,2.2,2.2,4.34,4.43,6.46,6.67,2.1,2.26,4.16,4.54,6.15,6.86,2,2.3,3.93,4.64,5.82,7,1.87,2.36,3.7,4.73,5.47,7.13,1.77,2.4,3.47,4.79,5.09,7.22,1.64,2.43,3.22,4.86,4.74,7.31,1.5,2.45,2.96,4.89,4.33,7.36,1.37,2.46,2.69,4.93,3.94,7.39,1.23,2.46,2.42,4.92,3.51,7.39,1.11,2.46,2.16,4.91,3.12,7.36.97,2.45,1.87,4.9,2.69,7.33.82,2.43,1.58,4.85,2.26,7.25.7,2.4,1.32,4.8,1.86,7.15.54,2.38,1.01,4.73,1.43,7.06.4,2.31.73,4.62,1,6.9.27,2.26.47,4.53.6,6.74.13,2.22.2,4.39.19,6.57,0,2.15-.08,4.26-.21,6.35-.13,2.09-.32,4.13-.59,6.15-.25,2-.58,3.98-.95,5.89-.39,1.93-.82,3.81-1.33,5.66-.49,1.83-1.04,3.64-1.65,5.38-.61,1.74-1.28,3.44-1.99,5.08-.71,1.66-1.48,3.25-2.29,4.78-.81,1.55-1.68,3.04-2.57,4.49-.91,1.45-1.86,2.83-2.84,4.15-.99,1.34-2.01,2.6-3.08,3.84-1.06,1.22-2.15,2.37-3.29,3.48-1.12,1.09-2.28,2.14-3.46,3.13-1.2.99-2.4,1.91-3.64,2.77-1.24.88-2.49,1.68-3.77,2.44-1.27.74-2.57,1.43-3.88,2.05-1.31.63-2.62,1.21-3.95,1.72-1.33.49-2.65.94-4,1.32-1.32.39-2.67.71-4.01,1-1.32.26-2.66.47-4,.61-1.32.16-2.63.24-3.95.28-1.31.02-2.6,0-3.87-.09"/>
    <path class="cls-2" d="M715.01,220.66c-1.62,2.36-3.21,4.75-4.76,7.17-1.56,2.4-3.07,4.82-4.54,7.26-1.47,2.44-2.9,4.89-4.31,7.35-1.39,2.46-2.74,4.93-4.04,7.4-1.31,2.47-2.56,4.96-3.76,7.43-1.21,2.49-2.36,4.97-3.47,7.44-1.11,2.49-2.17,4.96-3.17,7.43-.99,2.47-1.93,4.93-2.82,7.39s-1.72,4.9-2.49,7.32c-.76,2.43-1.47,4.85-2.12,7.25-.65,2.39-1.24,4.76-1.75,7.13-.53,2.36-.97,4.69-1.36,7-.39,2.31-.72,4.58-.97,6.85-.26,2.25-.44,4.47-.57,6.67-.11,2.18-.17,4.35-.14,6.46.01,2.13.11,4.21.26,6.25.17,2.06.4,4.06.71,6.01.31,1.97.68,3.89,1.12,5.76.46,1.86.97,3.69,1.57,5.47.6,1.78,1.26,3.5,2,5.18.74,1.68,1.56,3.31,2.43,4.88.89,1.57,1.85,3.1,2.88,4.56,1.03,1.46,2.13,2.86,3.29,4.21,1.18,1.35,2.42,2.63,3.74,3.86,1.31,1.22,2.69,2.39,4.14,3.49,1.46,1.11,2.97,2.14,4.56,3.13,1.6.97,3.25,1.89,4.97,2.74,1.72.85,3.5,1.63,5.36,2.33,1.85.72,3.76,1.38,5.74,1.94,1.97.58,4.01,1.1,6.11,1.54,2.1.46,5.36.99,9.79,1.6"/>
    <path class="cls-2" d="M463.81,291.78c2.85-2.26,5.67-4.57,8.46-6.89,2.79-2.33,5.56-4.68,8.28-7.06,2.74-2.36,5.43-4.75,8.1-7.17,2.67-2.4,5.29-4.82,7.88-7.26,2.58-2.44,5.13-4.89,7.64-7.35,2.5-2.46,4.96-4.93,7.38-7.4,2.42-2.47,4.78-4.96,7.1-7.43,2.32-2.49,4.58-4.97,6.81-7.44,2.22-2.49,4.39-4.96,6.5-7.43,2.1-2.47,4.15-4.93,6.15-7.39,2-2.46,3.94-4.9,5.82-7.32,1.88-2.43,3.69-4.85,5.46-7.25,1.76-2.39,3.46-4.76,5.08-7.13,1.64-2.36,3.19-4.69,4.69-7,1.5-2.31,2.94-4.58,4.31-6.85,1.38-2.25,2.67-4.47,3.9-6.67,1.22-2.18,2.39-4.35,3.47-6.46,1.1-2.13,2.11-4.21,3.07-6.25.94-2.06,1.82-4.06,2.63-6.01.81-1.97,1.54-3.89,2.21-5.76.65-1.86,1.25-3.69,1.76-5.47.51-1.78.96-3.5,1.33-5.18s.67-3.31.9-4.88c.22-1.57.38-3.1.46-4.56.08-1.46.1-2.86.04-4.21-.07-1.35-.19-2.63-.4-3.86-.19-1.22-.47-2.39-.81-3.49-.35-1.11-.75-2.14-1.22-3.13-.49-.97-1.03-1.89-1.64-2.74-.61-.85-1.28-1.63-2.03-2.33-.74-.72-1.54-1.38-2.4-1.94-.86-.58-1.79-1.1-2.78-1.54-.99-.46-2.03-.83-3.14-1.14-1.1-.31-2.26-.56-3.47-.72-1.22-.18-2.49-.28-3.81-.32-1.32-.03-2.69,0-4.11.1-1.42.11-2.89.28-4.4.51-1.51.24-3.07.54-4.68.92-1.6.36-3.24.81-4.92,1.31-1.69.51-3.4,1.08-5.17,1.71-1.75.64-3.54,1.33-5.36,2.1-1.82.76-3.68,1.6-5.56,2.49-1.89.88-3.79,1.83-5.72,2.83-1.93,1.01-3.89,2.08-5.86,3.21-1.97,1.13-3.97,2.31-5.97,3.56-2.01,1.24-4.04,2.53-6.08,3.88-2.04,1.35-4.08,2.75-6.14,4.21"/>
    <path class="cls-2" d="M154.97,273c1.65.4,2.92.65,3.79.78.89.13,1.81.19,2.76.24.94.04,1.92.04,2.93,0,1.01-.04,2.04-.13,3.11-.25,1.06-.11,2.14-.28,3.25-.47,1.13-.19,2.25-.44,3.42-.71,1.15-.28,2.33-.6,3.53-.94s2.42-.72,3.65-1.15c1.22-.42,2.47-.88,3.74-1.36,1.26-.49,2.54-1.01,3.83-1.56,1.29-.56,2.58-1.15,3.89-1.76,1.32-.61,2.63-1.26,3.96-1.93,1.32-.68,2.65-1.38,3.97-2.11,1.33-.72,2.67-1.49,4-2.26,1.35-.78,2.68-1.57,4.01-2.4,1.33-.82,2.65-1.67,3.99-2.53,1.32-.86,2.64-1.75,3.96-2.64,1.31-.9,2.61-1.82,3.9-2.75s2.58-1.88,3.85-2.83c1.28-.96,2.53-1.92,3.78-2.89,1.24-.97,2.46-1.96,3.67-2.94,1.22-.99,2.4-1.99,3.57-2.99,1.18-.99,2.32-1.99,3.46-2.99,1.13-1,2.22-2,3.31-3,1.08-.99,2.14-1.99,3.17-2.97,1.03-.99,2.03-1.96,3.01-2.93.97-.97,1.92-1.93,2.83-2.89.92-.94,1.79-1.89,2.65-2.82.85-.92,1.67-1.83,2.46-2.72s1.54-1.76,2.26-2.63c.72-.85,1.4-1.69,2.06-2.5.65-.82,1.28-1.6,1.85-2.38.58-.76,1.13-1.5,1.63-2.21.51-.71.99-1.4,1.42-2.06s.82-1.28,1.17-1.86c.36-.6.68-1.15.96-1.68.28-.53.51-1.01.72-1.47.19-.46.36-.88.49-1.26.14-.38.22-.72.28-1.03.04-.29.06-.56.04-.78-.03-.22-.08-.4-.18-.54"/>
    <path class="cls-2" d="M647.74,224.48c.1.04.18.13.22.25.06.11.08.28.08.47-.01.19-.03.44-.08.71-.04.28-.11.6-.19.94-.08.35-.19.72-.32,1.15-.11.42-.25.88-.4,1.36s-.32,1.01-.5,1.56c-.18.56-.36,1.15-.56,1.76-.21.61-.4,1.26-.63,1.93-.21.68-.43,1.38-.64,2.11-.22.72-.44,1.49-.67,2.26-.24.78-.46,1.57-.68,2.4-.22.82-.43,1.67-.65,2.53-.21.86-.42,1.75-.63,2.65-.19.89-.39,1.81-.57,2.74s-.36,1.88-.51,2.83c-.17.96-.31,1.92-.44,2.89-.12.97-.24,1.96-.33,2.94-.11.99-.18,1.99-.24,2.99-.07.99-.11,1.99-.12,2.99-.01,1,0,2,.03,3,.03.99.08,1.99.17,2.97.08.99.19,1.96.32,2.93.14.97.31,1.93.5,2.89.19.94.43,1.89.68,2.82.26.92.56,1.83.88,2.72s.68,1.76,1.07,2.63c.39.85.82,1.69,1.28,2.5"/>
    <path class="cls-2" d="M557.43,293.69c2.08-1.31,4.14-2.63,6.17-3.93,2.03-1.32,4.03-2.64,6.01-3.96,1.97-1.32,3.92-2.64,5.83-3.96,1.93-1.32,3.82-2.64,5.67-3.96,1.86-1.31,3.69-2.61,5.49-3.92,1.79-1.29,3.54-2.58,5.28-3.88,1.72-1.28,3.4-2.54,5.06-3.81"/>
    <path class="cls-2" d="M219.06,333.57c.5,1.53,1.06,3.03,1.67,4.5.61,1.47,1.28,2.92,2,4.32s1.5,2.76,2.33,4.08c.83,1.33,1.74,2.63,2.68,3.88.96,1.24,1.96,2.44,3.03,3.61,1.07,1.15,2.19,2.26,3.38,3.33,1.19,1.07,2.43,2.1,3.74,3.07,1.29.97,2.65,1.9,4.07,2.76,1.42.88,2.89,1.69,4.42,2.46,1.53.78,3.11,1.49,4.75,2.14,1.65.65,3.35,1.26,5.1,1.81,1.75.54,3.57,1.03,5.43,1.46,1.86.43,3.78.79,5.75,1.11,1.96.31,3.99.56,6.06.74,2.07.19,4.19.32,6.36.38,2.18.07,4.4.07,6.67.01,2.26-.07,4.58-.19,6.93-.38,2.36-.19,4.76-.44,7.21-.75,2.44-.32,4.93-.69,7.46-1.14s5.1-.94,7.69-1.51c2.61-.57,5.25-1.19,7.92-1.89,2.68-.69,5.39-1.46,8.13-2.28,2.74-.82,5.5-1.69,8.31-2.64,2.79-.94,5.61-1.96,8.46-3.01,2.85-1.07,5.72-2.19,8.61-3.38,2.9-1.18,5.81-2.43,8.74-3.72,2.93-1.31,5.89-2.67,8.85-4.07,2.96-1.42,5.93-2.89,8.92-4.4,2.99-1.53,5.97-3.1,8.97-4.72,3-1.63,6.01-3.31,9.01-5.03"/>
  </g>
</svg>