<?xml version="1.0" encoding="UTF-8"?>
<svg id="Layer_3" data-name="Layer 3" xmlns="http://www.w3.org/2000/svg" viewBox="0 0 1000 500">
  <defs>
    <style>
      .cls-1 {
        stroke: #ff2a17;
      }

      .cls-1, .cls-2 {
        fill: none;
        stroke-miterlimit: 10;
        stroke-width: 8px;
      }

      .cls-2 {
        stroke: #78b0ff;
      }
    </style>
  </defs>
  <path class="cls-1" d="M457.26,60.33c-1.59,1.91-3.07,3.94-4.47,6.06-1.38,2.12-2.69,4.32-3.9,6.63-1.21,2.29-2.31,4.68-3.33,7.16-1.02,2.48-1.93,5.04-2.77,7.69-.81,2.65-1.55,5.38-2.18,8.18-.64,2.82-1.17,5.7-1.61,8.68-.44,2.96-.78,6.01-1.02,9.11-.25,3.13-.4,6.31-.45,9.55-.06,3.26-.02,6.57.13,9.95.13,3.39.36,6.82.7,10.32"/>
  <path class="cls-2" d="M901.84,161.93c1.23-1.12,2.43-2.24,3.57-3.37,1.14-1.12,2.23-2.24,3.26-3.36,1.03-1.12,2.01-2.24,2.93-3.34.92-1.1,1.79-2.21,2.59-3.31.79-1.09,1.55-2.17,2.23-3.26.7-1.07,1.33-2.13,1.91-3.18.57-1.06,1.09-2.09,1.53-3.12.46-1.04.87-2.05,1.2-3.04.35-.99.63-1.98.85-2.94.22-.96.39-1.9.48-2.81.11-.93.17-1.82.15-2.7s-.09-1.73-.22-2.56c-.11-.83-.29-1.65-.53-2.43-.26-.77-.55-1.52-.9-2.25-.35-.72-.75-1.42-1.21-2.09-.44-.67-.96-1.31-1.53-1.92-.55-.61-1.18-1.18-1.84-1.73-.66-.54-1.38-1.07-2.13-1.55s-1.56-.91-2.43-1.33c-.85-.42-1.75-.78-2.69-1.14-.94-.34-1.93-.64-2.96-.91-1.01-.27-2.08-.5-3.18-.69s-2.25-.35-3.42-.46c-1.18-.13-2.37-.21-3.63-.24-1.23-.05-2.5-.05-3.81,0-1.31.03-2.63.11-3.97.22-1.36.13-2.72.27-4.14.48-1.4.19-2.82.43-4.25.7-1.44.27-2.89.59-4.36.94-1.47.37-2.96.75-4.45,1.2-1.49.43-3,.9-4.51,1.42-1.51.51-3.04,1.06-4.55,1.65-1.53.59-3.06,1.22-4.58,1.89-1.51.67-3.04,1.38-4.56,2.11-1.51.74-3.02,1.52-4.53,2.33-1.51.82-3,1.66-4.49,2.54-1.47.9-2.94,1.81-4.4,2.77-1.45.94-2.91,1.94-4.32,2.96-1.42,1.01-2.82,2.06-4.2,3.15-1.36,1.07-2.72,2.19-4.05,3.33-1.32,1.15-2.61,2.32-3.88,3.52-1.27,1.18-2.5,2.41-3.7,3.66-1.2,1.25-2.37,2.53-3.5,3.84-1.14,1.3-2.23,2.62-3.28,3.97-1.05,1.34-2.06,2.7-3.02,4.09-.98,1.39-1.9,2.78-2.78,4.22-.86,1.42-1.69,2.86-2.47,4.32-.79,1.46-1.51,2.93-2.19,4.41-.68,1.47-1.31,2.97-1.88,4.48-.57,1.5-1.09,3.02-1.55,4.56-.46,1.52-.86,3.05-1.2,4.61-.35,1.54-.63,3.09-.86,4.62-.22,1.55-.39,3.1-.48,4.67-.11,1.55-.15,3.1-.11,4.65.02,1.55.11,3.1.26,4.65.17,1.55.39,3.09.66,4.62.29,1.54.64,3.07,1.07,4.59.4,1.52.9,3.04,1.45,4.54.53,1.49,1.16,2.97,1.84,4.46.7,1.47,1.45,2.93,2.26,4.38.83,1.44,1.71,2.86,2.67,4.29.96,1.41,1.97,2.8,3.07,4.17,1.09,1.38,2.25,2.72,3.46,4.05,1.21,1.33,2.5,2.64,3.86,3.92,1.36,1.28,2.78,2.53,4.25,3.76,1.49,1.23,3.04,2.43,4.64,3.61,1.62,1.17,3.28,2.3,5.02,3.42,1.73,1.12,3.51,2.19,5.37,3.25"/>
  <path class="cls-2" d="M667.9,170.29c-.39-.02-.79-.02-1.21,0-.4.03-.81.08-1.23.16-.42.08-.85.18-1.27.3-.42.11-.85.27-1.27.43-.4.18-.83.37-1.23.59-.42.22-.83.46-1.21.72-.4.27-.79.56-1.16.86-.37.3-.74.62-1.09.98-.35.35-.68.72-.99,1.1s-.63.78-.9,1.2c-.28.43-.53.86-.75,1.33-.24.45-.44.93-.63,1.41-.18.5-.35.99-.48,1.52-.13.51-.24,1.04-.31,1.58-.07.54-.11,1.09-.11,1.65-.02.58.02,1.14.07,1.73.06.58.15,1.17.28,1.78.13.59.31,1.2.52,1.81s.44,1.22.74,1.84c.28.62.61,1.25.98,1.87.37.62.77,1.25,1.23,1.87.44.62.94,1.25,1.47,1.87.53.62,1.12,1.25,1.75,1.87.63.61,1.29,1.23,2.01,1.84.72.61,1.47,1.2,2.28,1.81.81.59,1.66,1.18,2.56,1.76.9.58,1.84,1.15,2.83,1.71.99.56,2.02,1.1,3.11,1.63,1.09.54,2.21,1.07,3.39,1.57,1.18.51,2.39,1.01,3.64,1.49,1.27.48,2.58.94,3.92,1.39,1.36.45,2.76.88,4.2,1.28,1.44.42,2.93.8,4.44,1.17,1.53.38,3.09.74,4.71,1.06,1.6.34,3.24.64,4.93.93,1.67.29,3.4.54,5.17.78,1.77.24,3.55.45,5.39.64,1.82.19,3.7.35,5.59.5,1.91.14,3.85.26,5.82.34,1.95.1,3.96.16,5.98.19,2.02.03,4.07.03,6.15.02,2.08-.03,4.2-.08,6.31-.16,2.13-.08,4.29-.18,6.46-.32,2.17-.13,4.36-.29,6.57-.5,2.21-.19,4.44-.4,6.68-.66,2.25-.26,4.49-.53,6.77-.85"/>
  <path class="cls-2" d="M354.69,252.81c2.98-.74,5.96-1.52,8.94-2.33,2.98-.82,5.94-1.66,8.91-2.54,2.94-.9,5.89-1.81,8.82-2.77,2.93-.94,5.85-1.94,8.74-2.96,2.89-1.01,5.76-2.06,8.61-3.15,2.83-1.07,5.67-2.19,8.47-3.33,2.8-1.15,5.56-2.32,8.3-3.52,2.74-1.18,5.45-2.41,8.12-3.66,2.67-1.25,5.32-2.53,7.91-3.84,2.61-1.3,5.17-2.62,7.69-3.97,2.52-1.34,5.01-2.7,7.43-4.09,2.45-1.39,4.84-2.78,7.2-4.22,2.34-1.42,4.64-2.86,6.88-4.32,2.26-1.46,4.45-2.93,6.61-4.4,2.15-1.49,4.25-2.99,6.29-4.49s4.03-3.02,5.96-4.56c1.93-1.52,3.81-3.05,5.61-4.61,1.82-1.54,3.57-3.09,5.28-4.62,1.69-1.55,3.33-3.1,4.9-4.67,1.58-1.55,3.09-3.1,4.53-4.65,1.45-1.55,2.83-3.1,4.16-4.65,1.31-1.55,2.56-3.09,3.75-4.62,1.18-1.54,2.3-3.07,3.35-4.59,1.07-1.52,2.04-3.04,2.96-4.54.94-1.49,1.79-2.97,2.58-4.46.77-1.47,1.49-2.93,2.15-4.38.64-1.44,1.23-2.86,1.75-4.29.52-1.41.98-2.8,1.34-4.17.39-1.38.7-2.72.96-4.05.26-1.33.44-2.64.55-3.92.11-1.28.17-2.53.17-3.76-.02-1.23-.09-2.43-.22-3.61-.15-1.17-.33-2.3-.61-3.42-.26-1.12-.57-2.19-.96-3.25-.39-1.06-.81-2.06-1.31-3.05-.5-.98-1.07-1.94-1.67-2.85-.61-.91-1.27-1.79-1.99-2.64-.72-.85-1.49-1.65-2.3-2.41-.83-.77-1.69-1.5-2.61-2.19s-1.88-1.34-2.89-1.95c-1.01-.61-2.06-1.18-3.15-1.71-1.1-.53-2.23-1.02-3.4-1.47-1.18-.45-2.39-.85-3.64-1.22-1.23-.37-2.52-.69-3.83-.96-1.32-.29-2.67-.53-4.03-.72-1.38-.19-2.78-.34-4.2-.45-1.44-.11-2.87-.18-4.34-.19-1.47-.03-2.96,0-4.45.06-1.51.06-3.04.16-4.56.3-1.55.16-3.09.35-4.64.58-1.56.24-3.13.51-4.69.83-1.58.3-3.15.67-4.73,1.07-1.58.38-3.15.83-4.73,1.31-1.58.48-3.15.99-4.71,1.55-1.56.54-3.13,1.15-4.67,1.78-1.55.64-3.09,1.3-4.62,2-1.53.72-3.04,1.46-4.53,2.24-1.49.77-2.96,1.58-4.42,2.43-1.45.83-2.89,1.71-4.29,2.62-1.42.91-2.8,1.86-4.16,2.81-1.34.98-2.67,1.98-3.98,3.01-1.29,1.02-2.54,2.08-3.77,3.17-1.23,1.09-2.43,2.19-3.57,3.33-1.16,1.14-2.28,2.29-3.35,3.47-1.09,1.18-2.12,2.38-3.11,3.6-.99,1.23-1.95,2.46-2.85,3.73-.9,1.26-1.75,2.53-2.56,3.82-.81,1.3-1.56,2.61-2.28,3.92-.72,1.33-1.36,2.67-1.97,4.01-.61,1.34-1.16,2.7-1.67,4.06-.5,1.36-.94,2.73-1.33,4.13"/>
  <path class="cls-2" d="M208.94,159.66c.11-.45.18-.88.22-1.28.04-.42.02-.8-.02-1.17-.06-.38-.15-.74-.29-1.06-.13-.34-.29-.64-.52-.93-.2-.29-.46-.54-.75-.78-.28-.24-.61-.45-.98-.64-.35-.19-.75-.35-1.18-.5-.44-.14-.9-.26-1.4-.34-.48-.1-1.01-.16-1.56-.19-.55-.03-1.12-.03-1.73-.02-.61.03-1.25.08-1.9.16-.66.08-1.34.18-2.04.32-.7.13-1.42.29-2.15.5-.74.19-1.49.4-2.26.66-.77.26-1.55.53-2.36.85-.79.3-1.6.64-2.41,1.01-.81.37-1.64.77-2.47,1.18-.83.43-1.66.88-2.48,1.36-.85.48-1.67.99-2.52,1.54-.83.53-1.66,1.09-2.48,1.68-.83.59-1.66,1.22-2.47,1.86-.83.64-1.62,1.31-2.43,2.01-.79.69-1.56,1.41-2.34,2.16-.77.75-1.53,1.52-2.26,2.3-.74.8-1.45,1.62-2.13,2.45-.7.85-1.38,1.7-2.02,2.57-.66.88-1.27,1.79-1.88,2.7-.59.93-1.16,1.86-1.71,2.81-.53.96-1.03,1.94-1.51,2.93-.48.99-.92,1.98-1.32,3.01s-.77,2.06-1.09,3.1c-.33,1.06-.63,2.11-.86,3.18-.26,1.07-.46,2.14-.63,3.23-.15,1.09-.28,2.19-.35,3.29-.06,1.1-.09,2.21-.06,3.33.02,1.12.09,2.24.22,3.36.13,1.12.29,2.24.52,3.37.24,1.12.52,2.24.85,3.37.33,1.12.72,2.24,1.16,3.36s.94,2.24,1.49,3.34,1.16,2.21,1.82,3.31c.68,1.09,1.4,2.17,2.19,3.26.77,1.07,1.62,2.13,2.5,3.18.9,1.06,1.86,2.09,2.89,3.12,1.01,1.04,2.08,2.05,3.22,3.04,1.12.99,2.32,1.98,3.57,2.94,1.25.96,2.56,1.9,3.94,2.81,1.36.93,2.78,1.82,4.27,2.7,1.49.88,3.04,1.73,4.64,2.56,1.58.83,3.24,1.65,4.95,2.43,1.71.77,3.5,1.52,5.32,2.25,1.82.72,3.7,1.42,5.63,2.09,1.91.67,3.9,1.31,5.94,1.92,2.02.61,4.12,1.18,6.26,1.73,2.13.54,4.32,1.07,6.55,1.55,2.23.48,4.51.91,6.85,1.33,2.32.42,4.69.78,7.1,1.14,2.41.34,4.88.64,7.38.91,2.48.27,5.02.5,7.6.69,2.58.19,5.19.35,7.84.46,2.65.13,5.32.21,8.04.24,2.71.05,5.45.05,8.23,0,2.78-.03,5.58-.11,8.39-.22,2.83-.13,5.67-.27,8.56-.48,2.87-.19,5.76-.43,8.67-.7,2.91-.27,5.83-.59,8.78-.94,2.94-.37,5.91-.75,8.87-1.2,2.96-.43,5.94-.9,8.93-1.42"/>
  <path class="cls-1" d="M438.35,143.66c.32,3.5.74,7.05,1.25,10.65.51,3.62,1.12,7.26,1.82,10.97.7,3.69,1.48,7.44,2.35,11.23.89,3.79,1.86,7.6,2.9,11.46,1.06,3.86,2.2,7.75,3.41,11.67,1.21,3.92,2.52,7.86,3.9,11.84,1.4,3.96,2.86,7.96,4.39,11.95,1.55,4.02,3.16,8.03,4.87,12.05,1.69,4.04,3.47,8.07,5.3,12.11,1.84,4.05,3.75,8.09,5.72,12.12,1.97,4.04,4.02,8.07,6.12,12.09,2.1,4.04,4.28,8.03,6.5,12.03,2.24,4,4.51,7.98,6.86,11.93,2.33,3.96,4.72,7.88,7.16,11.78,2.44,3.9,4.93,7.77,7.46,11.61,2.54,3.83,5.11,7.63,7.73,11.39,2.61,3.75,5.27,7.48,7.96,11.14,2.69,3.68,5.42,7.29,8.16,10.85,2.75,3.56,5.53,7.09,8.34,10.53,2.8,3.45,5.63,6.84,8.49,10.17,2.84,3.33,5.7,6.59,8.58,9.79,2.88,3.18,5.76,6.31,8.66,9.36,2.9,3.05,5.82,6.02,8.71,8.92,2.92,2.9,5.82,5.7,8.71,8.45,2.92,2.73,5.82,5.36,8.71,7.92,2.9,2.56,5.78,5.04,8.64,7.41,2.88,2.39,5.72,4.68,8.56,6.86,2.84,2.2,5.66,4.28,8.45,6.29,2.8,1.99,5.57,3.88,8.3,5.68,2.75,1.8,5.46,3.49,8.13,5.08,2.67,1.59,5.3,3.07,7.92,4.45,2.6,1.38,5.15,2.65,7.67,3.81,2.52,1.17,4.98,2.24,7.41,3.18,2.42.93,4.79,1.78,7.12,2.5,2.31.72,4.58,1.35,6.8,1.84,2.2.51,4.36.91,6.46,1.19,2.08.27,4.11.44,6.08.49,1.97.06,3.86.02,5.7-.15,1.84-.17,3.6-.44,5.3-.83,1.69-.38,3.32-.87,4.85-1.48,1.55-.61,3.03-1.33,4.43-2.14,1.38-.81,2.71-1.74,3.94-2.78,1.25-1.02,2.41-2.16,3.49-3.41,1.08-1.25,2.08-2.58,2.99-4.04.91-1.44,1.74-2.99,2.48-4.62.76-1.65,1.4-3.39,1.99-5.23.57-1.82,1.06-3.75,1.46-5.78.4-2.01.7-4.13.93-6.31.23-2.2.36-4.49.42-6.84.04-2.37,0-4.81-.11-7.33-.13-2.54-.36-5.13-.66-7.8-.3-2.67-.7-5.42-1.17-8.24-.47-2.8-1.04-5.7-1.7-8.64-.64-2.96-1.38-5.95-2.22-9.02-.83-3.07-1.74-6.19-2.75-9.36-.98-3.18-2.06-6.4-3.24-9.68-1.16-3.28-2.41-6.59-3.73-9.96-1.33-3.35-2.73-6.74-4.21-10.19-1.5-3.43-3.05-6.9-4.7-10.4-1.65-3.5-3.35-7.03-5.13-10.57-1.8-3.54-3.66-7.12-5.59-10.7-1.93-3.6-3.94-7.2-6.01-10.82-2.06-3.6-4.21-7.24-6.4-10.85-2.22-3.64-4.47-7.26-6.8-10.89-2.31-3.64-4.7-7.26-7.14-10.87-2.44-3.64-4.94-7.24-7.5-10.84-2.54-3.6-5.15-7.18-7.8-10.74-2.65-3.58-5.36-7.12-8.11-10.63-2.75-3.52-5.53-7.03-8.35-10.48-2.84-3.47-5.7-6.9-8.62-10.31-2.92-3.39-5.85-6.74-8.83-10.06-2.97-3.32-5.99-6.59-9.02-9.81-3.05-3.24-6.1-6.4-9.19-9.55-3.09-3.13-6.19-6.19-9.32-9.21-3.14-3.03-6.29-5.99-9.43-8.9-3.16-2.9-6.35-5.74-9.53-8.51-3.18-2.78-6.38-5.49-9.57-8.15-3.2-2.63-6.4-5.21-9.62-7.71-3.2-2.5-6.4-4.93-9.6-7.27-3.2-2.37-6.4-4.64-9.59-6.84-3.2-2.2-6.38-4.32-9.55-6.37-3.18-2.05-6.33-4-9.47-5.87-3.14-1.88-6.27-3.68-9.38-5.38-3.11-1.71-6.19-3.32-9.26-4.85-3.05-1.53-6.1-2.99-9.11-4.34-3.01-1.36-5.99-2.63-8.94-3.83-2.96-1.17-5.89-2.27-8.77-3.28-2.9-1-5.76-1.91-8.56-2.73-2.82-.83-5.61-1.55-8.35-2.2-2.73-.64-5.44-1.21-8.09-1.67-2.67-.47-5.29-.85-7.86-1.14-2.56-.28-5.1-.47-7.58-.59-2.48-.11-4.91-.13-7.29-.08-2.39.06-4.72.21-6.99.44-2.29.23-4.53.55-6.71.95-2.18.4-4.3.87-6.38,1.42-2.06.57-4.09,1.19-6.06,1.91-1.97.72-3.88,1.5-5.74,2.37-1.86.87-3.66,1.8-5.4,2.8-1.74,1.02-3.43,2.08-5.08,3.24-1.63,1.14-3.2,2.35-4.72,3.64-1.53,1.27-2.99,2.6-4.41,4-1.4,1.4-2.77,2.86-4.05,4.38-1.31,1.5-2.56,3.07-3.75,4.68-1.19,1.63-2.33,3.3-3.41,5-1.08,1.72-2.12,3.47-3.09,5.29-.99,1.8-1.91,3.64-2.78,5.51-.87,1.88-1.71,3.79-2.48,5.74-.78,1.95-1.52,3.94-2.2,5.93-.68,2.01-1.31,4.05-1.89,6.1-.59,2.06-1.14,4.13-1.65,6.23-.49,2.08-.97,4.21-1.38,6.33-.42,2.12-.8,4.26-1.14,6.4-.36,2.14-.66,4.28-.93,6.44-.27,2.14-.51,4.3-.72,6.44-.19,2.14-.38,4.3-.51,6.42-.15,2.14-.27,4.26-.36,6.38-.08,2.12-.15,4.22-.19,6.31-.04,2.08-.06,4.15-.06,6.19s0,4.07.04,6.06c.04,1.99.09,3.96.15,5.91.06,1.93.13,3.83.23,5.7.08,1.88.17,3.71.27,5.51.09,1.8.21,3.56.3,5.27.11,1.72.23,3.39.32,5.02.11,1.63.21,3.2.32,4.74.09,1.53.19,3.01.28,4.43.09,1.44.17,2.8.23,4.13.08,1.33.13,2.6.17,3.81.06,1.19.08,2.35.09,3.45,0,1.08,0,2.12-.02,3.09-.04.97-.08,1.88-.15,2.73-.06.85-.15,1.63-.28,2.35-.11.72-.27,1.36-.44,1.97-.17.59-.38,1.1-.61,1.55-.23.47-.49.85-.8,1.19-.28.32-.63.59-.98.78-.36.19-.76.32-1.19.38-.44.08-.91.08-1.42,0-.51-.08-1.06-.21-1.67-.4-.59-.19-1.21-.45-1.89-.78-.66-.32-1.38-.72-2.12-1.16-.76-.45-1.55-.97-2.41-1.53-.83-.55-1.72-1.19-2.63-1.88-.93-.68-1.89-1.42-2.92-2.22-1-.8-2.06-1.65-3.16-2.54-1.1-.91-2.25-1.86-3.43-2.86-1.19-1-2.42-2.06-3.69-3.16-1.27-1.08-2.6-2.24-3.96-3.41-1.34-1.19-2.75-2.42-4.21-3.69-1.44-1.27-2.92-2.56-4.43-3.9-1.53-1.35-3.11-2.73-4.7-4.13-1.61-1.4-3.26-2.84-4.93-4.3-1.69-1.48-3.41-2.96-5.15-4.47-1.76-1.52-3.54-3.05-5.36-4.6s-3.68-3.13-5.57-4.72c-1.88-1.59-3.81-3.18-5.74-4.79-1.95-1.61-3.92-3.22-5.93-4.85-2.01-1.63-4.04-3.24-6.08-4.87-2.05-1.63-4.13-3.26-6.21-4.87-2.1-1.63-4.21-3.24-6.35-4.85-2.12-1.61-4.28-3.2-6.44-4.77-2.16-1.59-4.34-3.16-6.54-4.7-2.18-1.55-4.39-3.09-6.59-4.58-2.22-1.52-4.41-2.99-6.65-4.45-2.22-1.44-4.43-2.86-6.65-4.26-2.22-1.4-4.45-2.75-6.67-4.07-2.22-1.33-4.43-2.61-6.63-3.86-2.22-1.23-4.41-2.44-6.61-3.6-2.18-1.16-4.36-2.27-6.52-3.33-2.16-1.08-4.32-2.08-6.44-3.05-2.14-.97-4.24-1.88-6.33-2.73-2.1-.85-4.15-1.67-6.19-2.41-2.05-.74-4.05-1.42-6.04-2.05-1.97-.61-3.94-1.17-5.85-1.67-1.91-.49-3.81-.93-5.65-1.29-1.86-.36-3.68-.64-5.44-.87-1.78-.23-3.5-.38-5.19-.47s-3.33-.09-4.93-.04c-1.59.06-3.14.19-4.64.38-1.5.21-2.94.49-4.34.83-1.4.36-2.73.78-4.02,1.29-1.29.49-2.52,1.08-3.69,1.72-1.17.66-2.27,1.38-3.33,2.18-1.06.81-2.5,2.16-4.36,4.07"/>
  <path class="cls-1" d="M879.03,254.63c-2.12-2.39-4.3-4.83-6.54-7.31-2.25-2.5-4.58-5.02-6.97-7.6-2.39-2.58-4.85-5.19-7.37-7.84-2.52-2.65-5.11-5.34-7.77-8.05-2.65-2.73-5.36-5.47-8.15-8.26-2.78-2.78-5.63-5.59-8.54-8.41-2.9-2.84-5.87-5.68-8.9-8.56-3.01-2.86-6.1-5.76-9.24-8.66-3.13-2.9-6.33-5.8-9.57-8.71-3.26-2.92-6.55-5.85-9.89-8.77-3.35-2.94-6.74-5.85-10.19-8.77-3.45-2.92-6.93-5.83-10.46-8.75-3.52-2.9-7.1-5.8-10.7-8.7-3.62-2.88-7.26-5.74-10.95-8.58-3.68-2.84-7.39-5.66-11.14-8.47-3.75-2.8-7.52-5.57-11.31-8.32-3.81-2.73-7.63-5.44-11.48-8.11-3.85-2.67-7.71-5.3-11.59-7.88-3.88-2.6-7.79-5.13-11.69-7.63-3.9-2.5-7.82-4.94-11.76-7.33-3.92-2.41-7.86-4.74-11.8-7.03-3.92-2.27-7.86-4.49-11.8-6.67-3.94-2.16-7.86-4.24-11.78-6.27-3.92-2.05-7.84-4-11.75-5.89-3.9-1.89-7.79-3.69-11.65-5.44-3.86-1.74-7.73-3.41-11.56-5-3.83-1.57-7.62-3.09-11.4-4.51-3.77-1.4-7.52-2.75-11.23-4-3.71-1.25-7.39-2.41-11.03-3.47-3.64-1.08-7.26-2.05-10.82-2.94-3.56-.89-7.07-1.69-10.53-2.39-3.49-.68-6.9-1.29-10.27-1.8-3.37-.49-6.69-.91-9.95-1.21-3.26-.3-6.46-.51-9.6-.61-3.14-.11-6.23-.11-9.24,0-3.03.09-5.97.3-8.87.61-2.88.3-5.68.7-8.43,1.21-2.75.51-5.42,1.14-8.01,1.86-2.6.72-5.11,1.53-7.54,2.46-2.44.93-4.81,1.95-7.09,3.09-2.27,1.12-4.47,2.35-6.57,3.69-2.12,1.33-4.15,2.77-6.08,4.3-1.93,1.53-3.79,3.16-5.55,4.91-1.76,1.72-3.43,3.56-5,5.49"/>
  <path class="cls-2" d="M769.98,216.36c2.26-.3,4.55-.64,6.83-1.01,2.28-.37,4.58-.77,6.88-1.18,2.3-.43,4.6-.88,6.9-1.36,2.32-.48,4.62-.99,6.94-1.54,2.3-.53,4.6-1.09,6.9-1.68,2.3-.59,4.6-1.22,6.88-1.86,2.3-.64,4.56-1.31,6.85-2.01,2.26-.69,4.51-1.41,6.75-2.16,2.25-.75,4.47-1.52,6.68-2.3,2.21-.8,4.4-1.62,6.55-2.45,2.17-.85,4.32-1.7,6.44-2.57,2.13-.88,4.21-1.79,6.29-2.7,2.06-.93,4.1-1.86,6.13-2.81,2.01-.96,3.97-1.94,5.93-2.93,1.95-.99,3.86-1.98,5.74-3.01,1.88-1.02,3.72-2.06,5.5-3.1,1.8-1.06,3.57-2.11,5.28-3.18,1.73-1.07,3.4-2.14,5.04-3.23,1.62-1.09,3.22-2.19,4.77-3.29,1.53-1.1,3.04-2.21,4.47-3.33,1.45-1.12,2.85-2.24,4.2-3.36,1.34-1.12,2.65-2.24,3.9-3.37"/>
  <path class="cls-2" d="M75.15,200.67c3.63.26,6.37.42,8.23.5,1.84.06,3.7.11,5.56.14,1.86.02,3.74.02,5.63,0,1.88-.03,3.75-.08,5.65-.16,1.9-.08,3.79-.18,5.69-.3,1.9-.11,3.79-.27,5.69-.43,1.88-.18,3.77-.37,5.65-.59,1.9-.22,3.77-.46,5.63-.72,1.88-.27,3.74-.56,5.58-.86,1.84-.3,3.68-.62,5.5-.98,1.82-.35,3.63-.72,5.41-1.1,1.79-.38,3.57-.78,5.32-1.2,1.75-.43,3.48-.86,5.17-1.33,1.71-.45,3.39-.93,5.04-1.41,1.66-.5,3.29-.99,4.9-1.52,1.6-.51,3.18-1.04,4.73-1.58,1.55-.54,3.05-1.09,4.53-1.65,1.49-.58,2.93-1.14,4.34-1.73,1.42-.58,2.8-1.17,4.14-1.78,1.34-.59,2.63-1.2,3.9-1.81,1.27-.61,2.5-1.22,3.68-1.84,1.2-.62,2.34-1.25,3.44-1.87,1.1-.62,2.17-1.25,3.18-1.87,1.03-.62,2.01-1.25,2.94-1.87.94-.62,1.82-1.25,2.67-1.87.85-.61,1.66-1.23,2.41-1.84.75-.61,1.47-1.2,2.13-1.81.66-.59,1.29-1.18,1.86-1.76.57-.58,1.1-1.15,1.58-1.71.48-.56.92-1.1,1.31-1.63.39-.54.74-1.07,1.03-1.57.29-.51.55-1.01.77-1.49.2-.48.37-.94.5-1.39"/>
  <path class="cls-2" d="M327.75,258.45c2.98-.51,5.98-1.06,8.96-1.65,3-.59,6-1.22,9-1.89,2.98-.67,5.98-1.38,8.98-2.11"/>
  <path class="cls-2" d="M392.83,156.41c-.39,1.38-.72,2.75-.99,4.14-.29,1.39-.5,2.78-.66,4.19-.17,1.39-.28,2.78-.31,4.19-.04,1.39-.02,2.78.06,4.17.07,1.41.2,2.78.4,4.17.18,1.39.44,2.77.75,4.13.33,1.38.7,2.73,1.14,4.09.44,1.36.94,2.7,1.49,4.03.57,1.33,1.18,2.65,1.86,3.95.68,1.31,1.42,2.61,2.23,3.89.79,1.26,1.66,2.53,2.56,3.77.92,1.23,1.9,2.46,2.93,3.66,1.03,1.2,2.13,2.38,3.28,3.55,1.14,1.17,2.34,2.3,3.61,3.42,1.25,1.12,2.56,2.21,3.92,3.28,1.36,1.06,2.78,2.11,4.25,3.12,1.47,1.02,2.98,2.02,4.55,2.97,1.56.96,3.18,1.9,4.84,2.8,1.67.91,3.39,1.79,5.13,2.62,1.75.85,3.55,1.66,5.39,2.45,1.84.8,3.72,1.55,5.63,2.27,1.93.72,3.88,1.41,5.87,2.06,2.01.66,4.03,1.28,6.09,1.87,2.08.59,4.16,1.15,6.29,1.66,2.13.53,4.29,1.02,6.48,1.47,2.19.45,4.4.88,6.63,1.26,2.25.38,4.49.74,6.77,1.06,2.28.32,4.58.59,6.9.85,2.32.24,4.66.46,7.01.64,2.36.18,4.71.32,7.09.43s4.77.19,7.16.22c2.37.05,4.78.05,7.18.03,2.41-.02,4.82-.08,7.21-.18,2.41-.08,4.82-.21,7.21-.35,2.41-.16,4.8-.34,7.2-.56,2.41-.21,4.78-.45,7.16-.74,2.39-.27,4.75-.58,7.1-.91,2.36-.32,4.69-.69,7.03-1.07,2.32-.38,4.64-.8,6.92-1.25,2.3-.43,4.56-.91,6.83-1.39,2.25-.5,4.47-1.01,6.68-1.55,2.19-.53,4.38-1.09,6.53-1.68,2.13-.58,4.27-1.18,6.37-1.81,2.08-.61,4.14-1.25,6.18-1.92,2.02-.66,4.03-1.33,5.98-2.03,1.97-.69,3.9-1.39,5.8-2.11,1.9-.74,3.74-1.47,5.56-2.22,1.82-.74,3.61-1.5,5.34-2.27,1.73-.78,3.44-1.55,5.1-2.35,1.66-.78,3.26-1.58,4.84-2.4,1.56-.8,3.09-1.62,4.58-2.43,1.47-.82,2.91-1.63,4.31-2.46,1.4-.82,2.74-1.65,4.05-2.48,1.29-.82,2.56-1.65,3.75-2.48,1.21-.82,2.37-1.65,3.5-2.46,1.1-.83,2.17-1.65,3.2-2.46,1.01-.82,1.99-1.62,2.93-2.41.92-.82,1.8-1.6,2.63-2.38.83-.8,1.62-1.57,2.36-2.33.75-.77,1.44-1.54,2.1-2.27.64-.75,1.25-1.49,1.8-2.21.55-.72,1.07-1.42,1.55-2.11.46-.69.88-1.38,1.27-2.03.39-.66.72-1.3,1.03-1.94.29-.62.55-1.23.77-1.81.22-.59.4-1.17.55-1.71.15-.56.24-1.09.31-1.6.07-.5.11-.99.11-1.46s-.04-.91-.09-1.33c-.07-.42-.17-.82-.28-1.18-.13-.38-.28-.74-.46-1.06-.18-.32-.39-.62-.61-.9-.22-.29-.48-.53-.75-.77-.28-.22-.57-.42-.86-.59-.31-.18-.64-.34-.99-.46-.35-.13-.7-.22-1.09-.3-.37-.06-.75-.11-1.14-.14"/>
</svg>