<?xml version="1.0" encoding="UTF-8"?>
<svg id="Layer_3" data-name="Layer 3" xmlns="http://www.w3.org/2000/svg" xmlns:xlink="http://www.w3.org/1999/xlink" viewBox="0 0 512 512">
  <defs>
    <style>
      .cls-1 {
        fill: none;
      }

      .cls-2 {
        clip-path: url(#clippath-1);
      }

      .cls-3 {
        clip-path: url(#clippath);
      }
    </style>
    <clipPath id="clippath">
      <rect class="cls-1" y="-572" width="512" height="512"/>
    </clipPath>
    <clipPath id="clippath-1">
      <rect class="cls-1" y="0" width="512" height="512"/>
    </clipPath>
    <image id="image" width="3840" height="2880" xlink:href="../animare_stroke_tex (00000).png"/>
  </defs>
  <g class="cls-3">
    <use transform="translate(-1066.88 31.94) rotate(-82.8) scale(.72)" xlink:href="#image"/>
  </g>
  <g class="cls-2">
    <use transform="translate(-1066.88 603.94) rotate(-82.8) scale(.72)" xlink:href="#image"/>
  </g>
  <path d="M332.24,367.74h41.85l-93.16-258.37h-49.85l-93.16,258.37h41.85l5.16-14.92c10.48-30.28,38.99-50.59,71.03-50.59h0c31.91,0,60.34,20.15,70.92,50.25l5.36,15.26ZM255.82,146.85l42.24,122.19c1.2,3.47-1.38,7.1-5.05,7.1h-73.99c-3.67,0-6.25-3.61-5.06-7.08l41.87-122.21Z"/>
  <rect class="cls-1" y="0" width="512" height="512"/>
</svg>