<?xml version="1.0" encoding="UTF-8"?><svg
  xmlns="http://www.w3.org/2000/svg"
  xmlns:xlink="http://www.w3.org/1999/xlink"
  viewBox="0 0 120 50"
>
  <defs>
    <style>
      .cls-1 {
        fill: url(#a);
      }
      .cls-2 {
        fill: #5d5d5d;
      }
      .cls-3 {
        fill: gray;
      }
      .cls-4 {
        fill: #fff;
      }
      .cls-5 {
        fill: #1f1f1f;
      }
      .cls-6 {
        fill: #404040;
      }
      .cls-7 {
        fill: #a6a6a6;
      }
      .cls-8 {
        fill: #2e2e2e;
      }
    </style>
    <linearGradient
      id="a"
      x1="40.67"
      y1="26.54"
      x2="60.24"
      y2="26.54"
      gradientUnits="userSpaceOnUse"
    >
      <stop offset="0" stop-color="#a6a6a6" />
      <stop offset="1" stop-color="#fff" />
    </linearGradient>
  </defs>
  <polygon
    class="cls-5"
    points="39.95 20.33 46.4 23.7 39.98 30.34 39.95 20.33"
  />
  <polygon
    class="cls-5"
    points="63.97 40.23 60 47.78 74.71 37.31 63.97 40.23"
  />
  <polygon
    class="cls-2"
    points="22.42 10.59 28.79 9.09 15.36 5.84 22.42 10.59"
  />
  <polygon class="cls-5" points="47.72 7.88 39.45 2.22 38.62 9.45 47.72 7.88" />
  <polygon
    class="cls-5"
    points="36.22 10.41 28.36 15.26 36.37 19.86 36.22 10.41"
  />
  <path
    class="cls-7"
    d="M39.26,17.05h-14.92l1.9,2.94-5.7,16.03h3.73l2.4-6.75,4.35,6.75h4.09l-4.69-7.28h4.69l3.99-2.95,2.06-5.79-1.9-2.94ZM35.92,24.24l-1.11.82h-6.65l1.54-4.33h6.65l.53.82-.96,2.7Z"
  />
  <polygon
    class="cls-7"
    points="20.82 23.52 22.07 20 20.18 17.05 5.25 17.05 7.15 20 2.5 33.08 4.4 36.02 13.43 36.02 17.42 33.08 18.68 29.55 14.95 29.55 14.24 31.53 13.14 32.35 7.31 32.35 6.78 31.53 10.33 21.54 11.44 20.72 17.27 20.72 17.79 21.54 17.09 23.52 20.82 23.52"
  />
  <path
    class="cls-1"
    d="M58.35,17.05h-9.77s-3,2.22-3,2.22l-4.91,13.81,1.9,2.94h9.04l3.99-2.94,4.65-13.08-1.9-2.94ZM52.41,31.53l-1.11.82h-5.83l-.53-.82,3.55-9.99,1.11-.82h5.83l.53.82-3.55,9.99Z"
  />
  <polygon
    class="cls-5"
    points="74.71 37.31 71.79 47.78 81.97 41.85 74.71 37.31"
  />
  <polygon
    class="cls-8"
    points="80.25 27.66 87.83 31.63 87.79 19.85 80.25 27.66"
  />
  <polygon
    class="cls-5"
    points="80.25 27.66 77.33 16.92 87.79 19.85 80.25 27.66"
  />
  <polygon
    class="cls-6"
    points="87.79 19.85 77.33 16.92 71.65 3.81 87.79 19.85"
  />
  <polygon
    class="cls-5"
    points="81.87 9.67 71.65 3.81 87.79 19.85 81.87 9.67"
  />
  <polygon
    class="cls-8"
    points="74.71 37.31 87.83 31.63 81.97 41.85 74.71 37.31"
  />
  <polygon
    class="cls-6"
    points="80.25 27.66 74.71 37.31 87.83 31.63 80.25 27.66"
  />
  <polygon class="cls-2" points="60 47.78 71.79 47.78 74.71 37.31 60 47.78" />
  <polygon
    class="cls-6"
    points="52.7 33.88 42.67 38.05 53.62 42.39 52.7 33.88"
  />
  <polygon
    class="cls-3"
    points="71.65 3.81 59.87 3.81 56.91 14.26 71.65 3.81"
  />
  <polygon class="cls-2" points="47.2 4.37 40.05 11.38 52.1 9.76 47.2 4.37" />
  <polygon
    class="cls-2"
    points="67.68 11.39 77.33 16.92 71.65 3.81 67.68 11.39"
  />
  <polygon
    class="cls-8"
    points="54.21 19.85 44.18 9.67 55.17 11.35 54.21 19.85"
  />
  <polygon
    class="cls-4"
    points="76.64 17.05 73.99 24.51 69.18 17.05 62.51 17.05 64.41 20 58.71 36.02 62.44 36.02 67.32 22.3 72.13 29.76 69.9 36.02 73.63 36.02 80.38 17.05 76.64 17.05"
  />
  <path
    class="cls-4"
    d="M87.48,17.05l-3.99,2.94-4.65,13.08,1.9,2.94h9.04l3.99-2.94,4.65-13.08-1.9-2.94h-9.04ZM90.58,31.53l-1.11.82h-5.83l-.53-.82,3.55-9.99,1.11-.82h5.83l.53.82-3.55,9.99Z"
  />
  <polygon
    class="cls-4"
    points="116.32 23.32 117.5 20 115.6 17.05 100.68 17.05 102.58 20 100.65 25.43 102.54 28.37 109.98 28.37 110.5 29.19 109.67 31.53 108.56 32.35 102.73 32.35 102.21 31.53 102.84 29.75 99.11 29.75 97.93 33.08 99.82 36.02 108.86 36.02 112.85 33.08 114.78 27.64 112.88 24.7 105.45 24.7 104.93 23.88 105.76 21.54 106.86 20.72 112.69 20.72 113.22 21.54 112.59 23.32 116.32 23.32"
  />
  <polygon
    class="cls-8"
    points="39.83 33.31 32.33 37.45 38.42 47.54 39.83 33.31"
  />
  <polygon
    class="cls-3"
    points="54.32 34.69 60 47.78 63.97 40.23 54.32 34.69"
  />
</svg>
